<svg viewBox="0 0 423 457" xmlns="http://www.w3.org/2000/svg" xml:space="preserve" fill-rule="evenodd" clip-rule="evenodd"
  stroke-linejoin="round" stroke-miterlimit="2" width="100%" height="100%" class="fill: currentColor;">
  <path
    d="M8.361 287.692c-9.308-50.47-5.512-101.22 11.387-152.248 16.899-51.029 49.637-88.4 98.213-112.115C166.537-.386 214.322-2.662 261.316 16.5c46.994 19.162 87.157 43.483 120.49 72.961 33.334 29.478 44.527 65.188 33.581 107.131-10.946 41.943-12.479 87.665-4.598 137.168 7.881 49.503-10.941 83.709-56.467 102.619-45.525 18.91-89.993 21.977-133.404 9.203-43.411-12.775-87.362-29.666-131.855-50.674-44.494-21.007-71.394-56.746-80.702-107.216Z" />
</svg>