<?xml version="1.0" encoding="UTF-8" standalone="no"?>
<!DOCTYPE svg PUBLIC "-//W3C//DTD SVG 1.1//EN" "http://www.w3.org/Graphics/SVG/1.1/DTD/svg11.dtd">
<svg width="100%" height="100%" viewBox="0 0 93 113" version="1.1" xmlns="http://www.w3.org/2000/svg" xmlns:xlink="http://www.w3.org/1999/xlink" xml:space="preserve" xmlns:serif="http://www.serif.com/" style="fill-rule:evenodd;clip-rule:evenodd;stroke-linejoin:round;stroke-miterlimit:2;">
    <g transform="matrix(1,0,0,1,-1.85246,0)">
        <g transform="matrix(0.0882802,0,0,0.0862163,-40.1799,-31.7494)">
            <path d="M1069.78,460.867C1066.82,457.9 1065.15,453.875 1065.15,449.678L1065.15,368.253L588.465,369.519L588.465,488.994C588.465,493.208 586.784,497.247 583.795,500.217C549.498,534.299 522.69,574.216 504.116,618.858C485.543,663.5 476.125,710.652 476.125,759.004L476.125,1122.36C476.125,1166.1 511.703,1201.67 555.435,1201.67C599.168,1201.67 634.746,1166.1 634.746,1122.36L634.746,1073.72C634.746,1064.98 641.83,1057.9 650.569,1057.9C659.307,1057.9 666.391,1064.98 666.391,1073.72L666.391,1187.53C666.391,1231.7 702.325,1267.63 746.493,1267.63C790.661,1267.63 826.595,1231.7 826.595,1187.53L826.595,1073.72C826.595,1064.98 833.678,1057.9 842.417,1057.9C851.156,1057.9 858.24,1064.98 858.24,1073.72L858.24,1248.79C858.24,1293.06 894.262,1329.09 938.539,1329.09C982.816,1329.09 1018.84,1293.06 1018.84,1248.79L1018.84,1073.72C1018.84,1064.98 1025.92,1057.9 1034.66,1057.9C1043.4,1057.9 1050.48,1064.98 1050.48,1073.72L1050.48,1586.92C1050.48,1631.82 1087.01,1668.35 1131.92,1668.35C1176.82,1668.35 1213.35,1631.82 1213.35,1586.92L1213.35,881.726C1213.35,875.326 1217.21,869.557 1223.12,867.107C1229.03,864.656 1235.84,866.013 1240.36,870.537L1322.64,952.812C1375.4,1005.58 1461.26,1005.58 1514.03,952.812C1527.18,939.661 1527.18,918.262 1514.03,905.11L1069.78,460.867Z" style="fill:white;fill-rule:nonzero;"/>
        </g>
    </g>
</svg>
