<svg viewBox="0 0 568 216" xmlns="http://www.w3.org/2000/svg" xml:space="preserve" fill-rule="evenodd" clip-rule="evenodd"
  stroke-linejoin="round" stroke-miterlimit="2">
  <path
    d="m210.497 23.008-.25-1.289 5.848-9.593 15.928-1.874 16.905 3.44 14.192 9.673 5.83 5.098c9.236-8.214 21.078-13.34 34.367-13.34 15.469 0 25.982 7.964 36.245 17.677 9.157-6.835 22.707-14.407 35.161-14.407 29.917 0 55.666 25.017 55.666 53.95 0 28.935-21.662 53.526-54.275 52.43-13.624-.454-26.084-4.87-35.61-12.903-9.99 8.38-23.007 13.454-37.238 13.454-30.115 0-52.805-19.04-54.633-47.411l-7.425.425c-4.337 26.085-32.959 45.811-54.24 45.811-29.122 0-50.716-23.218-50.716-52.566 0-29.348 17.03-53.19 52.76-53.19a52.063 52.063 0 0 1 21.491 4.61l-.006.005Z"
    fill="#bed730" />
  <path
    d="M347.135 168.586c1.987 2.072 3.53 4.575 4.655 7.505 1.124 2.929 1.686 6.187 1.686 9.735 0 3.548-.568 6.83-1.72 9.747-1.153 2.918-2.725 5.421-4.769 7.47a20.872 20.872 0 0 1-6.846 4.695 21.24 21.24 0 0 1-8.316 1.658 21.538 21.538 0 0 1-8.702-1.766 20.464 20.464 0 0 1-6.84-4.91c-1.903-2.055-3.407-4.542-4.497-7.47a26.944 26.944 0 0 1-1.629-9.424c0-3.667.568-6.925 1.714-9.81a22.942 22.942 0 0 1 4.735-7.43 20.249 20.249 0 0 1 6.931-4.757 21.31 21.31 0 0 1 8.288-1.663c2.974 0 5.79.567 8.43 1.691 2.64 1.124 4.938 2.697 6.812 4.729h.068Zm-231.29 39.152-10.945.693-.483-.438v-2.929l-.25-.056a12.89 12.89 0 0 1-4.07 3.014c-1.629.795-3.292 1.175-4.995 1.175-1.782 0-3.502-.397-5.149-1.192a13.127 13.127 0 0 1-4.331-3.344c-1.249-1.464-2.237-3.224-2.963-5.279-.727-2.055-1.101-4.314-1.101-6.784 0-2.27.397-4.416 1.169-6.46a17.005 17.005 0 0 1 3.236-5.336c1.283-1.408 2.872-2.554 4.745-3.389 1.874-.834 3.775-1.277 5.711-1.277 1.465 0 2.838.187 4.303.556 1.465.37 2.623.852 3.633 1.42V167.2c0-.897-.153-1.703-.454-2.441a3.667 3.667 0 0 0-1.243-1.669c-.585-.414-1.391-.693-2.396-.88a29.662 29.662 0 0 0-3.236-.397v-1.964l12.83-.693.482.477v42.206c0 .738.125 1.362.415 1.873.306.534.743.988 1.26 1.317.397.25.982.415 1.743.471l2.089.137v2.1Zm446.924 0-10.956.693-.471-.438v-2.929l-.267-.056c-1.09 1.231-2.441 2.242-4.07 3.008-1.63.767-3.281 1.175-4.996 1.175-1.782 0-3.542-.408-5.143-1.186a13.052 13.052 0 0 1-4.331-3.344c-1.26-1.464-2.237-3.224-2.975-5.279-.738-2.055-1.078-4.314-1.078-6.784 0-2.27.397-4.416 1.17-6.46a16.797 16.797 0 0 1 3.235-5.336c1.283-1.408 2.872-2.554 4.74-3.389 1.868-.834 3.77-1.277 5.722-1.277 1.459 0 2.895.187 4.303.556 1.408.37 2.611.852 3.622 1.42V167.2c0-.897-.142-1.703-.432-2.441-.29-.738-.72-1.289-1.249-1.669-.579-.414-1.385-.693-2.395-.88-1.01-.187-2.1-.312-3.253-.397v-1.964l12.83-.693.482.477v42.206c0 .738.136 1.362.426 1.873.306.534.743.988 1.26 1.317.397.25.976.415 1.748.471l2.09.137v2.1h-.012Zm-390.271-14.76c.851.75 1.532 1.636 1.987 2.635.454.999.715 2.27.715 3.644a8.926 8.926 0 0 1-3.264 7.124c-2.169 1.834-4.973 2.76-8.424 2.76-1.828 0-3.503-.33-5.03-.994-1.527-.664-2.64-1.25-3.292-1.8l-.636 2.078h-2.384l-.324-10.9h2.191c.17.818.528 1.795 1.079 2.839a14.541 14.541 0 0 0 2.004 2.997 10.48 10.48 0 0 0 2.969 2.35 8.095 8.095 0 0 0 3.894.965c2.032 0 3.593-.47 4.689-1.385 1.095-.914 1.703-2.259 1.703-3.985a4.734 4.734 0 0 0-.517-2.293c-.352-.653-.863-1.22-1.544-1.703-.681-.483-1.55-.931-2.566-1.317l-3.394-1.164c-1.13-.34-2.237-.75-3.316-1.22-1.226-.511-2.27-1.124-3.133-1.817a8.857 8.857 0 0 1-2.282-2.736c-.59-1.09-.908-2.35-.908-3.803a8.56 8.56 0 0 1 2.86-6.523c1.92-1.76 4.468-2.668 7.664-2.668 1.266.006 2.526.165 3.752.477 1.289.312 2.271.704 3.134 1.135l.727-1.646h2.287l.477 10.06h-2.191c-.443-2.254-1.397-4.088-2.872-5.496-1.476-1.408-3.27-2.129-5.382-2.129-1.743 0-3.094.438-4.099 1.306-1.004.869-1.487 1.93-1.487 3.179 0 .948.16 1.731.483 2.373.323.641.84 1.18 1.487 1.629.75.483 1.55.88 2.384 1.186l3.588 1.25c1.39.453 2.708.964 3.945 1.56 1.238.596 2.26 1.25 3.066 1.97l-.04.063Zm352.652 7.965c-1.317 2.498-3.077 4.485-5.28 5.978-2.202 1.493-4.745 2.27-7.595 2.27-2.526 0-4.729-.443-6.625-1.322-1.896-.88-3.463-2.1-4.672-3.633a15.378 15.378 0 0 1-2.759-5.325c-.601-2.032-.908-4.19-.908-6.443 0-2.044.33-3.974.965-5.995.636-2.02 1.59-3.712 2.839-5.28 1.203-1.498 2.702-2.713 4.501-3.632 1.8-.92 3.786-1.38 6.017-1.38 2.282 0 4.247.358 5.881 1.079 1.635.72 2.952 1.703 3.963 2.952.999 1.237 1.737 2.662 2.174 4.19.471 1.617.715 3.36.715 5.239v2.1h-20.725c0 2.044.193 3.917.596 5.603a13.568 13.568 0 0 0 1.85 4.428 8.934 8.934 0 0 0 3.247 2.906c1.323.704 2.912 1.067 4.769 1.067 1.856 0 3.497-.454 4.87-1.334 1.374-.88 2.68-2.469 3.946-4.768l2.236 1.362-.005-.062Zm-234.753 6.8-10.218.693-.477-.443v-3.973h-.199l-1.703 1.703a11.798 11.798 0 0 1-2.185 1.618 13.67 13.67 0 0 1-2.76 1.305c-.885.295-2.145.454-3.774.454-2.765 0-4.87-.908-6.324-2.724-1.453-1.817-2.169-4.428-2.169-7.874v-14.97c0-.766-.147-1.407-.431-1.93-.284-.522-.715-.964-1.26-1.35a4.119 4.119 0 0 0-1.442-.545 14.775 14.775 0 0 0-1.817-.244v-2.1l10.445-.762.477.455v21.741c0 2.27.568 3.974 1.516 5.11.948 1.135 2.242 1.725 3.656 1.725a8.327 8.327 0 0 0 3.11-.55 9.09 9.09 0 0 0 2.288-1.26c.55-.427 1.056-.898 1.51-1.42.386-.42.721-.886 1.005-1.38V183.3c0-.704-.153-1.317-.454-1.856-.301-.54-.71-1-1.25-1.38-.38-.255-.936-.414-1.69-.465l-2.521-.142v-2.1l11.387-.761.488.454v24.824c0 .72.142 1.34.438 1.845a4.06 4.06 0 0 0 1.243 1.3c.414.25.88.414 1.362.471l1.743.142v2.089l.006.023Zm101.425 0-10.218.693-.483-.443v-3.973h-.182l-1.72 1.703a11.502 11.502 0 0 1-2.19 1.618c-.864.533-1.783.97-2.737 1.311-.908.295-2.157.454-3.775.454-2.781 0-4.882-.908-6.335-2.725-1.453-1.816-2.18-4.428-2.18-7.873v-14.97c0-.766-.125-1.407-.42-1.93-.295-.522-.704-.965-1.266-1.35a4.204 4.204 0 0 0-1.436-.546 14.628 14.628 0 0 0-1.817-.244v-2.1l10.445-.76.472.453v21.742c0 2.27.51 3.974 1.532 5.109 1.022 1.135 2.237 1.726 3.662 1.726 1.152 0 2.191-.188 3.1-.551.907-.363 1.668-.783 2.287-1.26a10.13 10.13 0 0 0 1.499-1.42c.391-.42.732-.88 1.016-1.379v-17.722c0-.704-.154-1.317-.454-1.857a3.904 3.904 0 0 0-1.238-1.38c-.375-.255-.948-.413-1.692-.465l-2.531-.141v-2.1l11.41-.762.477.455v24.824c0 .72.147 1.34.454 1.845.306.505.698.93 1.232 1.305.374.244.84.398 1.362.471l1.743.142v2.09l-.017.01Zm-243.314-.005-2.622.869c-.755.238-1.607.34-2.555.34-1.703 0-2.963-.386-3.95-1.152-.989-.767-1.619-1.908-1.891-3.39h-.188a15.21 15.21 0 0 1-4.433 3.492c-1.59.812-3.48 1.203-5.7 1.203-2.355 0-4.285-.71-5.79-2.157-1.504-1.447-2.27-3.332-2.27-5.642 0-1.215.17-2.288.51-3.236a7.715 7.715 0 0 1 1.522-2.572c.522-.624 1.226-1.192 2.1-1.691.784-.46 1.601-.863 2.447-1.198l5.79-2.015 5.893-2.27v-3.146a13.706 13.706 0 0 0-.176-1.595 6.394 6.394 0 0 0-.75-2.214 6.335 6.335 0 0 0-1.777-2.043c-.772-.585-1.873-.88-3.292-.88-.976 0-1.873.17-2.708.488-.834.318-1.436.681-1.76 1.033 0 .431.103 1.05.301 1.873.199.823.301 1.59.301 2.294 0 .738-.34 1.419-1.005 2.02-.664.602-1.59.92-2.781.92-1.062 0-1.84-.363-2.328-1.112a4.532 4.532 0 0 1-.738-2.532 4.505 4.505 0 0 1 1.028-2.787c.681-.892 1.59-1.686 2.668-2.385a14.606 14.606 0 0 1 3.468-1.51c1.363-.42 2.68-.567 3.974-.567 1.777 0 3.327.13 4.655.374a8.663 8.663 0 0 1 3.605 1.567c1.084.795 1.89 1.845 2.458 3.18.567 1.333.84 3.076.84 5.193l-.193 15.725c0 .817.142 1.476.431 1.964.318.522.772.948 1.312 1.232.323.193.828.306 1.51.329l2.117.034v2.02l-.023-.056Zm347.202 0-2.61.869c-.756.238-1.607.34-2.555.34-1.703 0-2.98-.386-3.957-1.152-.976-.767-1.624-1.908-1.885-3.39h-.193c-1.385 1.534-2.855 2.703-4.428 3.492-1.572.789-3.485 1.203-5.699 1.203-2.356 0-4.291-.71-5.79-2.157-1.499-1.447-2.27-3.332-2.27-5.642 0-1.215.17-2.288.521-3.236.352-.948.84-1.817 1.51-2.572.528-.624 1.227-1.192 2.1-1.691.784-.46 1.596-.863 2.442-1.198l5.79-2.015 5.887-2.27v-3.146c0-.272-.057-.794-.17-1.59a6.618 6.618 0 0 0-.739-2.213 6.378 6.378 0 0 0-1.793-2.044c-.772-.579-1.874-.88-3.293-.88a7.47 7.47 0 0 0-2.708.489c-.834.329-1.419.68-1.77 1.033 0 .431.113 1.05.306 1.873s.312 1.59.312 2.293c0 .738-.34 1.42-1.022 2.021-.681.602-1.59.92-2.781.92-1.056 0-1.834-.363-2.271-1.113-.437-.749-.75-1.59-.75-2.531 0-.966.341-1.908 1.022-2.782.682-.874 1.59-1.686 2.691-2.384a14.34 14.34 0 0 1 3.463-1.51c1.362-.42 2.68-.568 3.974-.568 1.77 0 3.332.13 4.655.375a8.772 8.772 0 0 1 3.616 1.566c1.09.795 1.89 1.845 2.44 3.18.551 1.333.852 3.076.852 5.194l-.187 15.724c0 .817.13 1.476.425 1.964.296.488.716.908 1.306 1.232.324.193.818.306 1.504.33l2.1.033v2.021l-.045-.068Zm-32.675 0-2.622.869a8.42 8.42 0 0 1-2.549.34c-1.646 0-2.969-.386-3.957-1.152-.987-.767-1.612-1.908-1.884-3.39h-.193c-1.374 1.534-2.856 2.703-4.428 3.492-1.573.789-3.48 1.203-5.7 1.203-2.355 0-4.291-.71-5.79-2.157-1.498-1.447-2.27-3.332-2.27-5.642 0-1.215.17-2.288.51-3.236a7.954 7.954 0 0 1 1.516-2.572c.54-.624 1.232-1.192 2.1-1.691.784-.46 1.601-.863 2.447-1.198l5.802-2.015 5.88-2.27v-3.146a12.566 12.566 0 0 0-.17-1.595 6.504 6.504 0 0 0-.743-2.214 6.328 6.328 0 0 0-1.794-2.043c-.772-.585-1.873-.88-3.292-.88a7.523 7.523 0 0 0-2.714.488c-.84.33-1.419.681-1.76 1.033 0 .431.103 1.05.301 1.873.193.75.295 1.522.307 2.294 0 .738-.34 1.419-1 2.02-.658.602-1.6.92-2.838.92-1.061 0-1.845-.363-2.327-1.112a4.419 4.419 0 0 1-.755-2.532c0-.965.34-1.908 1.039-2.782a10.462 10.462 0 0 1 2.685-2.384c.953-.596 2.1-1.107 3.451-1.51a13.832 13.832 0 0 1 3.974-.568 25.521 25.521 0 0 1 4.65.375 8.545 8.545 0 0 1 3.592 1.567 7.312 7.312 0 0 1 2.475 3.184c.557 1.34.84 3.077.84 5.195l-.187 15.724c0 .817.142 1.476.426 1.964.284.488.715.908 1.317 1.232.312.193.817.306 1.504.33l2.112.033v2.021l.045-.068Zm-383.061 0-2.612.869a8.456 8.456 0 0 1-2.554.34c-1.646 0-2.969-.386-3.951-1.152-.982-.767-1.624-1.908-1.896-3.39h-.187c-1.374 1.534-2.856 2.703-4.428 3.492-1.573.789-3.474 1.203-5.7 1.203-2.35 0-4.28-.71-5.79-2.157-1.51-1.447-2.27-3.332-2.27-5.642a9.684 9.684 0 0 1 .51-3.242 7.715 7.715 0 0 1 1.522-2.571c.528-.625 1.226-1.192 2.1-1.692.784-.46 1.601-.857 2.441-1.198l5.79-2.015 5.881-2.27v-3.145a12.566 12.566 0 0 0-.17-1.596 7.437 7.437 0 0 0-.738-2.27 6.141 6.141 0 0 0-1.794-2.044c-.783-.585-1.873-.88-3.292-.88a7.57 7.57 0 0 0-2.708.488c-.834.318-1.43.682-1.76 1.034 0 .431.097 1.05.296 1.873.193.75.295 1.521.306 2.293 0 .738-.34 1.42-.999 2.021-.659.602-1.59.92-2.838.92-1.068 0-1.84-.363-2.328-1.113a4.541 4.541 0 0 1-.75-2.532 4.465 4.465 0 0 1 1.034-2.787 10.532 10.532 0 0 1 2.68-2.384c.964-.596 2.1-1.107 3.462-1.51a13.804 13.804 0 0 1 3.974-.568c1.771 0 3.332.13 4.655.375a8.64 8.64 0 0 1 3.599 1.567 7.362 7.362 0 0 1 2.463 3.184c.551 1.34.84 3.077.84 5.194l-.187 15.725c0 .817.142 1.476.426 1.964.284.488.72.908 1.317 1.232.312.193.817.306 1.504.33l2.112.033v2.021h.04Zm118.756-.795-3.906 1.442c-1.226.398-2.736.596-4.507.596-2.628 0-4.468-.67-5.546-1.987-1.079-1.317-1.607-3.196-1.607-5.676v-21.14h-5.637v-3.049h5.78v-9.746h5.767v9.746h8.992v3.049h-8.924v17.495l.147 3.293c.091.874.324 1.646.682 2.304a3.34 3.34 0 0 0 1.52 1.403c.682.306 1.59.454 2.726.454.522 0 1.305-.04 2.27-.142.965-.102 1.703-.21 2.18-.363v2.327l.063-.006Zm18.761 1.363H202.38v-2.09l1.515-.136c.568-.04.965-.113 1.346-.255a2.345 2.345 0 0 0 1.322-.993c.301-.574.443-1.22.415-1.868v-19.3a3.844 3.844 0 0 0-.46-1.857 4.05 4.05 0 0 0-1.277-1.408 5.537 5.537 0 0 0-1.754-.647 12.86 12.86 0 0 0-2.084-.34v-2.1l11.042-.693.442.437v25.528a3.576 3.576 0 0 0 .432 1.839c.284.494.726.851 1.34 1.135.454.205.908.352 1.35.466.489.119.983.204 1.482.25v2.088-.056Zm37.267 0h-9.44l-5.313-7.687-5.881-7.947-2.612 2.424v7.437c0 .766.137 1.396.42 1.896.284.5.716.851 1.329 1.09.51.215.999.368 1.464.476.534.108 1.073.188 1.613.233v2.089H221.01v-2.089l1.515-.148a7.647 7.647 0 0 0 1.323-.25c.579-.192 1.022-.522 1.317-.998.295-.477.443-1.096.443-1.851v-36.427a5.25 5.25 0 0 0-.488-2.22c-.341-.681-.761-1.209-1.29-1.567-.453-.34-1.134-.567-2.082-.664l-2.271-.227v-2.043l11.597-.699.432.477v33.13l5.353-5.32 4.853-5.063c.193-.239.38-.483.551-.738.204-.307.307-.568.307-.761 0-.556-.466-1-1.391-1.277a15.028 15.028 0 0 0-2.646-.562v-2.044h13.778v1.976a21.561 21.561 0 0 0-4.723 1.98 19.87 19.87 0 0 0-3.122 2.14c-.5.421-1.232 1.108-2.169 2.062l-3.905 3.735 5.864 7.692 4.751 6.471c.942 1.249 1.771 2.066 2.515 2.452.743.386 1.805.613 3.224.71v2.089l.011.023Zm175.466 0h-15.327v-2.09l1.59-.136c.59-.034 1.078-.113 1.447-.25.59-.192 1.04-.533 1.323-1.01.284-.477.42-1.078.42-1.85v-16.094c0-2.214-.522-3.934-1.572-5.154a4.93 4.93 0 0 0-3.844-1.8c-1.118 0-2.145.17-3.082.528-.88.318-1.714.744-2.486 1.272-.704.5-1.25 1.022-1.664 1.578l-.92 1.362v17.995c-.028.625.131 1.244.455 1.777.3.466.755.829 1.328 1.079.454.215.931.369 1.453.477l1.601.227v2.089H395.62v-2.09l1.505-.136c.567-.034.965-.113 1.35-.25.597-.192 1.034-.533 1.318-1.004.283-.471.42-1.09.42-1.856v-19.312c0-.721-.142-1.38-.443-1.987a3.863 3.863 0 0 0-1.294-1.476c-.398-.25-.869-.432-1.42-.557l-1.77-.227v-2.1l10.399-.692.437.442v4.411h.17l1.92-1.834c.669-.63 1.39-1.209 2.15-1.725.795-.511 1.715-.926 2.8-1.277 1.083-.352 2.287-.5 3.632-.5 3.009 0 5.251.925 6.699 2.816 1.447 1.89 2.174 4.36 2.174 7.464v16.292c0 .75.113 1.34.386 1.8.272.46.681.812 1.306 1.067.425.182.862.33 1.31.443.517.096 1.034.159 1.556.199v2.089Zm-381.716 0H35.883a139.242 139.242 0 0 0-8.112-11.234l-9.366-10.809h-.812v15.685c0 .698.125 1.34.397 1.873.273.534.738 1 1.442 1.34.34.142.965.318 1.89.545.926.227 1.68.323 2.294.34v2.254H4.91v-2.237l2.135-.204c.936-.08 1.589-.199 1.97-.375.624-.272 1.095-.68 1.379-1.22.3-.602.448-1.272.431-1.947v-32.584c0-.71-.125-1.334-.363-1.862s-.727-.982-1.448-1.306a11.75 11.75 0 0 0-2.032-.738 12.19 12.19 0 0 0-2.072-.369v-2.253h18.71v2.253c-.596.017-1.334.114-2.27.284-.937.17-1.544.324-1.97.477-.727.244-1.203.681-1.465 1.266a4.848 4.848 0 0 0-.374 1.941v15.554h.63l5.677-5.035 5.012-5.223 3.667-4.62c.766-1.153 1.158-2.174 1.158-3.066 0-.323-.199-.59-.59-.783a6.651 6.651 0 0 0-1.363-.5 11.374 11.374 0 0 0-1.578-.232l-1.135-.074v-2.254h16.888v2.254l-1.147.085c-.3.023-.584.085-.89.136l-1.136.216c-.795.187-1.567.46-2.3.817-.794.364-1.447.83-1.946 1.38l-6.812 7.68-7.04 7.266 7.993 9.39 6.733 8.401c.897 1.147 1.805 2.066 2.708 2.742a16.422 16.422 0 0 0 2.344 1.55c.55.272 1.226.488 2.044.624a14.66 14.66 0 0 0 2.049.261v2.31Zm293.893-7.777c1.192-1.93 2.043-4.105 2.588-6.546.545-2.44.818-5.165.818-8.157 0-3.088-.307-5.926-.897-8.504-.59-2.577-1.505-4.79-2.668-6.613a12.59 12.59 0 0 0-4.383-4.206c-1.748-1.005-3.77-1.505-6.017-1.505-2.555 0-4.712.58-6.489 1.743-1.776 1.164-3.224 2.725-4.354 4.666-1.05 1.874-1.839 4.048-2.361 6.557-.522 2.509-.783 5.109-.783 7.862 0 3.054.283 5.802.828 8.254.545 2.452 1.42 4.638 2.612 6.545 1.135 1.862 2.583 3.315 4.325 4.36 1.743 1.044 3.804 1.578 6.228 1.578a11.95 11.95 0 0 0 6.113-1.59 12.536 12.536 0 0 0 4.445-4.444h-.005Zm-238.035 1.72v-18.325a8.424 8.424 0 0 0-.823-1.776 8.001 8.001 0 0 0-1.43-1.749c-.613-.528-1.334-.965-2.157-1.322-.823-.358-1.789-.511-2.878-.511-1.266 0-2.43.323-3.509.987-1.078.665-2.01 1.59-2.827 2.816a14.597 14.597 0 0 0-1.856 4.536c-.465 1.816-.681 3.848-.681 6.074 0 1.77.17 3.389.568 4.842a12.218 12.218 0 0 0 1.714 4.047 8.568 8.568 0 0 0 2.833 2.856c1.152.72 2.514 1.078 4.098 1.078 1.692 0 3.088-.369 4.2-1.124a13.461 13.461 0 0 0 2.81-2.43h-.062Zm446.902 0v-18.325a7.634 7.634 0 0 0-.818-1.776 7.83 7.83 0 0 0-1.419-1.749c-.613-.528-1.34-.965-2.157-1.322a7.4 7.4 0 0 0-2.89-.517 6.477 6.477 0 0 0-3.502.988c-1.067.652-2.01 1.59-2.838 2.815a14.597 14.597 0 0 0-1.856 4.536c-.466 1.816-.682 3.849-.682 6.074 0 1.771.17 3.389.511 4.842.34 1.453.909 2.799 1.703 4.048a8.909 8.909 0 0 0 2.856 2.855c1.135.721 2.497 1.079 4.098 1.079 1.68 0 3.083-.37 4.201-1.124a12.814 12.814 0 0 0 2.793-2.43v.006Zm-482.38-11.286-4.74 1.562a19.889 19.889 0 0 0-3.77 1.901c-1.062.738-1.902 1.59-2.52 2.566a6.654 6.654 0 0 0-.909 3.52c0 1.703.466 3.065 1.38 3.882.914.818 2.089 1.238 3.502 1.238a7.14 7.14 0 0 0 3.962-1.09 11.734 11.734 0 0 0 2.907-2.594l.187-10.985Zm415.747 0-4.728 1.562a19.985 19.985 0 0 0-3.781 1.901c-1.062.738-1.902 1.59-2.498 2.566-.596.976-.925 2.157-.925 3.52 0 1.703.471 3.065 1.362 3.882.937.83 2.1 1.238 3.52 1.238a7.14 7.14 0 0 0 3.962-1.09c1.152-.738 2.117-1.59 2.895-2.594l.187-10.985h.006Zm-347.208 0-4.734 1.562a19.38 19.38 0 0 0-3.786 1.901c-1.056.738-1.89 1.59-2.498 2.566-.607.976-.92 2.157-.92 3.52 0 1.703.454 3.065 1.38 3.882.925.818 2.083 1.238 3.502 1.238 1.505 0 2.839-.358 3.974-1.09 1.135-.732 2.1-1.59 2.895-2.594l.193-10.985h-.006Zm314.522 0-4.729 1.562a18.617 18.617 0 0 0-3.77 1.901 8.6 8.6 0 0 0-2.514 2.566c-.613.988-.92 2.157-.92 3.52 0 1.703.455 3.065 1.374 3.882a5.035 5.035 0 0 0 3.508 1.238c1.51 0 2.827-.358 3.974-1.09 1.147-.732 2.118-1.59 2.838-2.594l.188-10.985h.05ZM518.116 189c0-1.271-.102-2.543-.3-3.797-.205-1.351-.523-2.481-.966-3.395a6.433 6.433 0 0 0-2.004-2.373c-.851-.613-1.941-.92-3.27-.92-2.225 0-4.07.92-5.54 2.77-1.47 1.851-2.27 4.417-2.401 7.721h14.475l.006-.006Zm-304.599-24.75a4.602 4.602 0 0 1-1.192 3.162 3.75 3.75 0 0 1-2.923 1.357c-1.09 0-2.032-.426-2.821-1.283a4.223 4.223 0 0 1-1.181-2.946c0-1.158.386-2.169 1.18-3.049.795-.88 1.732-1.294 2.822-1.294 1.203 0 2.191.397 2.963 1.215.772.817 1.152 1.703 1.152 2.838Zm130.45-14.22a12.84 12.84 0 0 1-.96 2.475c-.465.914-1.05 1.76-1.747 2.515a10.408 10.408 0 0 1-2.39 1.98c-.835.49-1.845.75-2.998.75a8.436 8.436 0 0 1-3.179-.533c-.908-.341-1.703-.704-2.35-1.09l-2.111-1.136a4.87 4.87 0 0 0-2.271-.567c-.659 0-1.147.085-1.476.255-.33.17-.664.454-1.022.852-.357.397-.681.89-1.022 1.521l-.965 1.692-1.839-.806c.21-.665.568-1.476 1.135-2.441.568-.937 1.056-1.76 1.703-2.498a9.178 9.178 0 0 1 2.328-1.947c.908-.54 1.85-.823 2.85-.823a7.948 7.948 0 0 1 3.06.539c.862.352 1.702.715 2.36 1.124l2.044 1.147c.557.306 1.232.465 2.044.465.84 0 1.533-.09 2.044-.295.51-.204.925-.483 1.22-.835.335-.403.619-.84.846-1.305l.812-1.817 1.93.727-.046.051Zm88.483-75.488c1.362-20.277-7.636-34.855-19.84-43.938-2.799-2.089-5.11-4.734-7.823-6.318-7.005-4.07-16.235-7.425-26.476-6.925 3.122-8.59-1.606-10.122-4.825-10.973-4.218-1.119-5.989 8.969-8.157 11-13.238.103-19.108 6.609-27.055 12.007-7.59-9.435-14.947-15.054-30.683-16.252-12.84-.965-24.71 3.28-32.198 8.134-1.816 1.147-5.421 5.354-7.22 4.502-1.72-.795-.568-2.702-1.522-4.218-5.183-2.02-8.401-6.034-13.834-7.822-.704-6.335-9.367-2.611-15.951-3.974-.432-1.164-.364-2.838-1.5-3.304-5.37-.794-9.32 2.305-13.839 3.304-6.244-7.947-10.87 8.084-14.441 10.235-18.166-8.47-43.898-2.838-55.37 6.926-7.21 6.09-13.908 19.425-15.952 29.802-1.385 7.073-.284 14.396.318 22.264.397 5.32 1.731 10.655 3.718 15.69a61.108 61.108 0 0 0 4.655 9.52l.148.25a60.284 60.284 0 0 0 4.723 6.738c3.814 4.712 9.253 9.117 15.213 12.205-13.17.431-21.98 1.192-21.98 2.1 0 1.215 17.058 2.231 39.254 2.419l1.8.017h4.785c25.318 0 45.834-1.102 45.834-2.441 0-1.05-11.82-1.919-28.577-2.288l2.044-.88c5.847-2.685 10.354-6.267 14.441-10.235 6.233-6.057 12.319-12.659 15.94-20.765 1.232-2.765 2.033-5.802 3.616-8.742 2.782-2.401 4.008 1.101 4.388 3.201.352 2.044.665 4.69.648 7.04-.012 3.15-.33 6.47 0 9.025.283 2.067.556 3.565 2.724 4.826 2.935.999 4.07 0 7.29 2.696 5.551 6.256 13.538 10.86 22.66 13.794-18.375.318-31.664 1.232-31.664 2.328 0 1.334 20.504 2.44 45.822 2.44l43.466-1.668c6.074.965 23.246 1.669 43.484 1.669 25.318 0 45.822-1.102 45.822-2.441 0-.92-9.27-1.72-23.008-2.135 15.906-7.34 27.827-29.45 29.122-48.876v.063Zm-95.369 50.221c-2.815-.465-8.06-.851-14.89-1.135 2.158-.511 3.986-1.022 6.245-1.834 3.576-1.249 8.589-5.035 12.006-5.438 5.49-.647 12.273 5.563 16.247 6.926.147.028.329.096.465.147-9.366.301-16.559.766-20.078 1.334h.005Zm-110.218-24.83c-6.358 9.605-15.804 16.19-28.78 20.13-10.037 3.065-20.243 3.95-29.786.295a33.074 33.074 0 0 1-2.98-1.3c-3.917-1.93-8.373-5.677-11.74-9.639a59.8 59.8 0 0 1-1.475-1.782c.34-2.419.794-5.251 1.288-6.284.863-1.93 11.654-5.473 11.654-5.473s-9.905-.698-12.545.908c-1.453.88-3.304 2.566-4.689 3.883l-1.68-4.132c1.703-.948 3.667-2.135 5.466-3.418 2.634-1.816 7.096-2.753 9.957-3.167-.738-.585-1.504-1.351-2.327-2.328-1.635-.26-3.77-.38-6.557-.17-4.967.386-7.493 2.004-8.782 3.423a46.547 46.547 0 0 1-.959-3.258c1.873-.852 4.541-2.084 7.096-3.418a51.843 51.843 0 0 1 4.967-2.23c-.261-.37-.528-.773-.795-1.17-2.6-.057-5.88-.068-7.868.136-1.618.148-3.122 1.062-4.303 2.06l-.198-1.464a70.945 70.945 0 0 1 4.053-3.332c1.317-.965 3.236-1.885 4.882-2.588a19.4 19.4 0 0 1-.954-1.715c-2.02-.113-4.218-.136-5.353.284-.954.369-2.117.834-3.15 1.283a55.676 55.676 0 0 1-.052-2.384l4.621-3.15 2.004-1.238a31.247 31.247 0 0 1-.738-3.531c-.88-.21-1.782-.307-2.685-.284-1.135.102-2.27 1.152-3.082 2.134.068-1.288.164-2.577.283-3.865l5.11-1.789-.086-1.55-4.303-1.816c.16-.97.335-1.936.534-2.9h3.786c.017-.495.046-.994.085-1.488l-3.008-2.367c.335-1.34.732-2.662 1.186-3.968.08-.25.17-.5.25-.738 2.765-7.607 11.387-18.307 19.84-21.957 3.985-1.72 9.185-2.986 14.458-3.605 18.166-2.197 38.017 6.653 46.333 16.235 6.154 7.05 11.439 18.989 11.439 32.187 0 12.83-4.984 22.457-10.371 30.529l-.046.011Zm179.485 14.907c-3.934 3.054-8.254 5.87-15.043 6.642l-3.434.272c-8.822.477-20.21-.488-26.363-2.384-2.867-.88-13.936-5.603-14.34-9.168-.016-.187.07-.488.2-.851 2.02 1.919 12.602 10.973 32.05 9.105 21.475-2.043 30.296-16.224 33.646-24.426a34.47 34.47 0 0 1-1.93-.721c-5.45 6.687-16.32 17.626-29.644 18.494-15.872 1-27.396-5.989-30.983-8.492.085-.148.17-.3.25-.465 2.168 1.504 10.728 6.624 26.81 5.937 16.497-.68 25.046-11.37 28.685-17.671l-1.635-.835c-5.45 4.848-16.235 12.733-29.167 13.102-14.606.42-20.039-4.002-21.742-5.983.103-.182.188-.37.267-.534 3.156 1.192 14.112 4.9 26.056 2.384 11.172-2.327 17.042-7.788 19.88-11.523-.432-.267-.908-.534-1.385-.818-4.332 3.236-12.16 7.97-21.231 8.504-11.24.636-18.574-3.281-21.004-4.825.188-.596.364-1.198.523-1.8 2.986 1.079 12.335 4.167 21.457 3.18 8.788-.966 13.471-5.036 15.895-8.255a20.379 20.379 0 0 1-1.078-1.135c-3.554 2.77-9.742 6.375-17.598 6.324-7.749-.034-15.015-4.854-17.37-6.557.101-.817.17-1.6.226-2.367 2.084 1.334 9.537 5.507 19.982 4.769 8.22-.585 10.406-5.2 10.94-8.22-.183-.398-.341-.818-.483-1.192-1.05 1.828-3.985 4.711-11.865 4.916a30.205 30.205 0 0 1-18.574-5.915l-.215-2.458 5.154 1.021-5.768-6.017c-1.34-8.583-3.973-15.469-8.611-21.526-.982-1.305-2.93-2.44-4.513-4.2a19.723 19.723 0 0 1-.75-.852 16.433 16.433 0 0 1-1.935-2.566c-.369-.624-.602-1.215-.624-1.714-.017-1.885 3.332-5.138 4.825-6.301 4.269-3.418 12.102-6.267 19.47-6.245-.397 1.499-.817 3.083-1.191 4.786-.17.783-.318 1.572-.449 2.367a38.222 38.222 0 0 0-.369 9.923c.318 3.394 1.118 8.515.869 10.83-.267 2.623-3.486 3.577-3.304 6.325.369 5.654 9.083 7.209 13.84 1.8 1.873-2.584 1.203-5.564-.897-7.517-1.192-1.101-2.867-1.192-3.622-2.407-1.828-3.008-.783-7.919.318-11.887l1.385-4.882c.255-.851.528-1.703.817-2.548.017-.057.057-.137.069-.2a.839.839 0 0 1 .068-.215c.193-.624.431-1.249.664-1.919.113-.312.216-.664.34-1.067.568-1.873 1.306-4.314 2.97-4.655 5.948-1.231 12.386.034 17.2 2.754l.034.034c.51.397 1.635 1.55.863 3.462-.341.835-1.034 1.437-1.8 1.885a17.98 17.98 0 0 0-2.566.897h-.017c-.204.074-.403.153-.602.238h-.017c-3.1 1.351-5.637 3.282-7.777 5.564-2.14 2.282-3.973 4.916-5.62 7.72-1.714 2.65-.862 3.803 3.747-.188 3.451-3.485 5.523-5.563 8.402-7.72.51-.38 2.588-1.714 5.96-2.47a18.894 18.894 0 0 1 3.15-.476c5.45-.42 11.62 1.266 12.546 1.533 3.105 1.93 5.847 4.064 8.322 6.903 14.572 16.87 8.89 52.435-6.926 68.914-1.282 1.334-3.599 2.197-5.415 3.6l-.023-.018Zm-81.517-2.083c-3.553 2.725-7.607 5.24-11.887 6.8a37.117 37.117 0 0 1-10.24 2.073c.102.028.198.068.29.119-.421.011-.841.011-1.272.011-.069-.011-.148-.057-.228-.068-7.135.3-13.68-.982-16.944-1.76l-2.135-.584c.42.017 4.559.102 11.212-.625-5.96-2.65-12.745-6.698-17.814-12.704-7.135-8.458-9.236-21.645-9.837-27.578 1.033-.817 2.1-1.97 3.769-2.4.147 1.112.284 2.315.318 3.331l3.088-.749c.08-.795.244-1.703.38-2.566.057-.017.085-.017.13-.017 2.084-.533 3.918-3.27 6.302-4.825 4.501-2.895 7.635-2.282 6.642-8.72-.534-3.383-.965-5.352-3.316-8.14-.204-1.68 1.147-1.85 1.192-3.292-.369-1.618-1.248-2.702-2.134-3.786-1.118-1.329-2.237-2.651-2.384-4.94 0-.101-.017-.186 0-.283-.034-.284-.017-.602 0-.92a5.567 5.567 0 0 0-.92-1.76c-.817-1.038-1.845-1.72-2.838-2.418-.136-.113-.25-.215-.386-.318-1.033-.834-1.8-1.703-1.919-3.03-.017-.154-.017-.285-.017-.455.227-3.86 7.573-8.89 9.64-10.048 6.17-3.485 14.588-5.279 23.478-4.518 9.082.783 18.687 5.637 23.16 10.536 2.98 3.252 4.616 7.652 4.218 14.134-.034.568-.17 1.317-.3 2.1.034-.198.056-.414.056-.646 0-2.799-2.066-8.424-6.437-11.79-3.253-2.498-8.345-4.502-11.274-5.518-.75-.38-1.516-.653-2.214-.738a3.654 3.654 0 0 0-.863 0c-.25.096-.38.181-.431.266-.34.682 4.337 1.618 5.563 4.882 2.27 5.836 1.05 12.972 4.184 19.375.653 1.334 1.419 2.47 2.339 3.451l.01.017c6.643 7.47 18.961 6.086 24.848 14.743 6.244 9.253 3.048 19.13-1.317 28.61-.818 1.788-3.122 4.485-3.94 5.722-4.53 6.8-13.068 11.955-23.127 14.975.057-.034.103-.057.154-.085.624-.318 1.214-.67 1.8-1.005a59.431 59.431 0 0 0 1.918-1.164 60.62 60.62 0 0 0 1.884-1.265 50.097 50.097 0 0 0 1.817-1.351c-.199-.057-1.8-.398-4.269-1.068l.051-.011ZM284.527 90.35a39.114 39.114 0 0 1-3.52-.954c1.647 3.827 5.143 9.537 12.534 15.305 5.183 4.047 11.683 7.652 16.974 10.275-7.198-2.158-16.065-5.291-22.508-9.197-9.083-5.495-13.579-15.293-15.44-20.51-.415-.323-.796-.613-1.102-.88.193 4.525 1.703 14.181 10.235 23.275 4.496 4.797 9.764 8.328 14.322 10.774 3.86-.488 8.402-1.249 13.414-2.43 4.218-.964 8.175-2.542 11.75-4.342-6.13-1.89-14.73-5.035-22.008-9.628a82.854 82.854 0 0 1-14.645-11.694l-.006.006Zm-28.304 8.163-.045-.096c-.057-.085-.057-.097-.069-.097-.601-.936-1.067-1.856-1.35-2.725-.018-.056-.035-.113-.069-.187-1.669-5.222-1.59-14.248 2.214-16.122l.454 8.884c.386 6.687 6.722 15.628 7.221 16.31-.3-.699-3.871-8.771-3.871-15.51 0-4.297.908-7.634 1.617-9.57.682.057 1.386.068 2.072-.057.262-.04.534-.17.784-.318-.681 5.149-1.306 14.93 1.816 24.342 2.328 7.056 6.756 11.54 10.502 14.225-3.883-1.6-7.42-3.7-10.417-6.357-1.055-.937-2.117-2.328-3.303-3.622-2.044-2.231-5.405-5.688-7.505-8.986-.017-.034-.034-.08-.057-.114h.006Zm-54.099 16.406v.017c-.505.25-1.01.488-1.521.715l-2.3.982c-.765.318-1.537.619-2.315.903l-.017-.017c-1.153-2.47-5.586-11.422-10.309-14.743-5.484-3.848-17.62-6.017-17.62-6.017s10.604-3.86 19.993 3.134c9.196 6.84 13.885 14.725 14.09 15.026Zm-29.308-11.183c-4.303.125-8.8 1.606-11.274 4.257.658 3.14 4.291 2.316 6.846 1.192 1.135 4.332 5.28 8.663 9.775 7.181 2.27-.766 2.838-3.394 4.808-4.882 2.146.2 2.294 3.066 5.177 2.271.034-.25.2-.386.557-.386.198-6.528-8.59-9.911-15.895-9.69l.006.057Zm37.562 6.369a67.097 67.097 0 0 1-6.074 3.718c-1.152-2.27-5.603-10.502-10.973-14.657-3.94-3.02-9.287-6.267-12.744-8.254a21.83 21.83 0 0 0 2.657-.834c3.383.908 7.936 2.571 12.988 5.637 8.952 5.42 13.09 12.375 14.135 14.39h.011Zm124.904-1.93a51.41 51.41 0 0 1-2.935 2.952c-1.016.953-2.083 1.833-3.167 2.685-.75-.295-1.965-.818-3.65-1.55a83.133 83.133 0 0 0 5.182-4.502c2.044.341 3.605.415 4.57.415Zm-23.37-1.902 10.615 4.69a66.878 66.878 0 0 0 6.017-3.611c-3.39-.738-7.755-2.1-12.932-4.632-6.88-3.372-13.601-7.749-18.392-11.11-1.005 0-2.01-.017-3.014-.045 3.9 4.683 10.388 11.444 17.7 14.703l.005.005Zm-94.858-1.567a56.472 56.472 0 0 1-4.865 4.07c-1.272-2.77-5.801-12.006-11.206-15.622-3.655-2.418-8.515-4.54-12.125-5.801.624-.37 1.237-.772 1.856-1.175 3.951.556 9.14 1.839 13.965 4.689 8.1 4.802 11.54 11.864 12.375 13.84Zm123.354-3.292c-.017.04-.057.068-.068.102a49.462 49.462 0 0 1-4.723 6.239c0-.188-1.448-.568-3.633-1.238a81.323 81.323 0 0 0 4.655-4.995c2.145.102 3.536-.08 3.746-.102h.017l.006-.006Zm-9.968 4.61a72.794 72.794 0 0 0 5.773-4.542 29.335 29.335 0 0 1-11.416-3.088c-4.541-2.305-10.717-5.733-15.298-8.322a40.29 40.29 0 0 1-2.169.568c3.974 3.86 9.946 9.378 14.112 11.648 3.066 1.675 6.358 2.884 8.998 3.73v.005ZM210.866 85.11c-4.575-2.703-9.468-3.974-13.34-4.599-.488.5-.988.983-1.498 1.454 3.44 1.34 7.805 3.235 11.103 5.438 5.66 3.78 10.485 13.527 11.524 15.741a56.265 56.265 0 0 0 4.388-5.04c-1.22-2.498-4.803-8.63-12.182-13.057l.005.063Zm133.709 8.06c-.216.568-.466 1.136-.699 1.686a50.339 50.339 0 0 1-1.589 3.304 54.092 54.092 0 0 1-.886 1.59c-1.703-.432-8.554-2.271-15.724-5.603-3.974-1.817-7.47-4.405-10.161-6.62a28.284 28.284 0 0 0 2.151-1.282 164.977 164.977 0 0 0 9.588 3.735c8.822 3.134 15.611 3.219 17.314 3.196l.006-.006Zm-116.27-3.315c-.851 1.618-1.76 3.219-2.838 4.803-.34.51-.681 1.022-1.05 1.498-1.119-2.452-6.387-13.255-12.035-17.041-2.872-1.919-6.55-3.599-9.718-4.899.38-.585.76-1.192 1.135-1.816 3.701.664 8.157 1.947 12.307 4.416 7.754 4.598 11.172 10.87 12.148 13.04h.051Zm185.423-4.689c-.795.114-1.476.75-1.573 1.556-.079.738-.056 1.703-.425 2.23-.386.625-.295 1.477.442 1.75.738.272 1.67-.143 2.078-.796.681-1.112 1.283-3.826 1.43-5.086.103-.795-1.26.261-1.952.34v.006Zm-242.763 4.814c.755 0 1.465-.085 2.066-.204.534.034 1.096.068 1.664.068 1.59.011 2.838-2.702.92-2.702-3.378-.012-5.507-.965-10.105-.148-1.556.284-2.861 3.066-.908 2.708 1.135-.21 2.18-.284 3.19-.284.71.34 1.873.568 3.179.568l-.006-.006Zm176.045-5.08c-.017.056-.017.085-.034.136-.017.05-.017.113-.034.17a55.001 55.001 0 0 1-.982 3.923c-.068.266-.13.533-.227.783-1.062.102-5.677.363-12.852-1.737-4.235-1.249-7.92-3.576-10.502-5.552.386-.363.772-.738 1.118-1.118a69.734 69.734 0 0 0 11.41 3.253c8.22 1.555 11.24.567 12.092.147h.017l-.006-.005Zm-40.463 3.525c.147-.784-.386-1.624-1-2.021-.612-.398-1.305-.358-1.498.613-.295 1.55 2.123 3.35 2.498 1.408Zm-14.277.539c.568.568 1.703.136 2.112-.34.545-.528.658-1.323.102-1.885-.17-.153-.318-.284-.466-.437.102.102-1.532-.795-1.504-.699-.528-1.691-2.004.091-1.533 1.613.227.76.727 1.209 1.289 1.748Zm115.372-5.518c-.868-.068-1.532.511-1.884 1.232-.187.37-.34.863-.5 1.107-.374.625-.3 1.465.454 1.749.755.283 1.556 1.305 1.965.652.352-.567.635-2.65.92-3.252.34-.699-.273-1.408-.966-1.488h.011ZM231.95 80.62v.017a51.94 51.94 0 0 1-1.283 3.781 51.656 51.656 0 0 1-1.488 3.463c-.028.085-.08.17-.113.25-1.334-2.714-6.528-12.784-12.222-16.14-3.179-1.85-7.187-3.405-10.536-4.512.244-.608.51-1.135.766-1.805 3.86.42 8.714 1.436 13.34 3.82 7.778 4.013 10.673 9.15 11.541 11.126h-.005Zm51.152 4.53c-.664-.908-2.98-3.61-2.906-4.768.113-1.873-1.862-.04-1.959 1.533-.102 1.617.54 2.969 1.476 4.229 1 1.34 4.371.323 3.383-.994h.006ZM168.49 82.12l2.498.851c2.202.738 5.183.84 7.85.71 1.743.471 3.407 1.05 4.922 1.783 1.437.68 4.383-1.68 2.685-2.498-.726-.364-1.476-.636-2.259-.931-1.533-.954-4.564-2.305-9.071-2.1-4.837-.568-9.82-.432-14.237.204-1.692.238-3.56 2.725-1.505 2.424 2.816-.398 5.95-.55 9.111-.443h.006Zm233.572.358c-.783 0-1.504.68-1.782 1.35s-.114 1.352.868 1.352c1.59 0 2.895-2.702.909-2.702h.005Zm-54.303-5.393a44.046 44.046 0 0 1-.403 4.967c-1.85.636-6.437 1.76-11.853-.398a26.77 26.77 0 0 1-8.322-5.296c.301-.482.602-.936.869-1.402 2.47.727 4.956 1.408 7.453 2.032 8.254 2.135 11.32.795 12.262.102l-.006-.005Zm-164.64 2.043c2.452.051 4.882.506 7.192 1.346 1.476.539 5.126-1.675 3.35-2.305-2.527-.908-6.018-1.38-8.714-1.42-.806-.01-2.526.103-2.782.892-.238.681.193 1.476.965 1.476l-.011.011Zm50.863-13.805a46.303 46.303 0 0 1-.386 7.59 43.807 43.807 0 0 1-.494 3.053 62.291 62.291 0 0 1-.721 3.043c-.897-1.731-5.603-10.354-11.104-13.584-3.769-2.203-8.855-3.951-12.238-4.967l.369-1.079c3.786.13 9.667.863 15.19 3.735 2.98 1.55 4.996 2.998 6.404 4.27-2.237-2.941-5.405-6.586-8.504-8.425-3.554-2.083-8.424-3.735-11.524-4.666.085-.284.17-.602.267-.908 3.434.096 9.054.738 14.305 3.451 3.787 1.953 5.87 3.486 7.022 4.587-2.214-2.97-6.67-8.47-10.405-10.655-2.821-1.67-6.483-3.009-9.31-3.9.102-.42.182-.823.267-1.192 3.202.181 7.652.93 11.853 3.1 2.214 1.152 3.701 2.043 4.74 2.701-2.072-2.753-5.04-6.244-7.947-7.936a31.37 31.37 0 0 0-7.618-3.15c.102-.55.17-.982.215-1.351a15.21 15.21 0 0 1 9.174 2.117c1.396.852 3.008 2.498 4.2 3.849.517.8 1.01 1.618 1.465 2.452.454.835.88 1.686 1.266 2.555.295.647.573 1.3.823 1.964l.38 1.022c.284.777.534 1.566.75 2.367.267.936.5 1.85.68 2.804.143.676.268 1.351.364 2.032.017.034.034.086.017.114.114.715.216 1.42.284 2.134.102.954.148 1.902.199 2.867l.017.006Zm147.423 5.75c-6.812 3.202-16.718 1.76-16.718 1.76s12.023 6.738 18.148 2.498c6.126-4.24 4.406-12.83 4.406-12.83s.936 5.36-5.836 8.572ZM276.614 60.77l-1.022-1.63v-.022c-.818-1.135-1.703-2.168-2.384-2.85a23.228 23.228 0 0 0-3.22-2.65l4.451-2.521.301-1.862-7.754 2.498c-1.453-.88-2.083-1.192-3.701-2.067 1.6-.465 3.553-.982 5.109-1.265l6.358-1.17s-5.036-1.305-8.271-1.646c-2.27-.227-5.234 1.152-6.954 2.072l-4.331-2.356s4.54-1.561 7.464-2.401h.023c.17-.046.312-.08.466-.13 2.917-.795 6.812 0 6.812 0s-2.243-1.136-5.706-1.573a23.795 23.795 0 0 0-3.303-.142c-5.302.142-10.638 1.703-10.638 1.703l-2.612-1.249a32.484 32.484 0 0 1 11.155-2.855c4.541-.25 7.022-.148 8.038-.057.312.011.5.057.585.057-.068-.023-.227-.085-.466-.154h-.022c-1.317-.38-4.967-1.305-10.604-1.203-6.12.085-13.636 1.079-15.702 1.362-.624-.198-1.249-.329-1.805-.352v-.01l-.602-.268c2.64-.715 10.672-2.895 14.59-3.451 4.71-.67 10.654-.795 10.654-.795s-7.692-1.453-16.161-1.266c-8.47.188-14.34 3.236-14.34 3.236l.636.363-1.703-.715c-.227-.3-.482-.585-.738-.869 0 0 5.75-3.553 12.637-3.95 6.885-.398 14.396-1.59 14.396-1.59s-10.542-1.067-18.733-.51c-8.186.51-12.205 1.702-12.205 1.702a13.306 13.306 0 0 0-.8-.8c2.452-.931 8.605-3.168 13.01-3.633 5.603-.585 13.681-1.079 13.681-1.079s-9.889-1.351-17.79-1.232c-6.205.097-10.332 2.367-11.865 3.332a36.17 36.17 0 0 0-2.015-1.447c1.039-.835 3.553-2.685 6.67-3.605 2.895-.851 7.873-1.232 10.525-1.362l1.782-.091s-7.153-1.362-15.526-.693c-5.25.432-7.289 2.396-7.97 3.406-1.266-.539-2.56-.999-3.883-1.368.511-3.389 2.765-5.109 4.519-7.22 3.735 2.4 7.453-1.317 10.842-2.1.931 1.18.75 3.45 2.402 3.9 4.456-.603 8.838-1.517 12.943-.285.851.25 1.617 1.17 2.4 1.505 4.224 1.731 9.293 1.634 12.035 4.813.318 5.291 6.574 4.672 9.038 7.823.227 1.135-.386 1.436-.313 2.401 1.43 3.803 5.433 4.996 7.533 8.118-.794 3.292 3.367 5.432 3.9 8.742.153.897-.624 1.998-.585 2.997.034 1.703 1.25 2.935 2.09 4.218.266.397.482.806.613 1.203.034.114.085.227.113.37.017.056.017.079.034.13a18.55 18.55 0 0 1 .732 3.553c.069.545.086 1.034.017 1.363a6.991 6.991 0 0 1-.181.698c-1.238 3.134-6.358 2.611-8.254 5.603-4.672-1.618-5.223 2.583-8.118 3.616-1.38.114-1.998-1.8-3.599-1.8-2.066 0-3.82 3.554-6.318 3.6-1.152.04-2.498-1.193-3.622-1.193-.34 0-.68.057-1.021.114-3.69.75-6.319 5.098-8.305-.114.21-1.76.357-3.53.437-5.302l3.65 2.135 2.498-1.783h7.981l1.555-1.487 5.62.806 3.85-2.571h5.608l2.157-1.403-21.254-10.586c-6.392-3.202-12.16-4.996-14.742-5.706h-.017c-.908-.266-1.402-.38-1.402-.38l-2.634-6.244c.34.125.675.272.999.437a476.208 476.208 0 0 1 17.796 8.237c.897.431 1.8.897 2.697 1.385 8.117 4.331 15.894 10.252 18.926 12.636l1.334-.851c.227-.364.034-1.079-.398-1.913l-.113-.228.04-.079Zm-79.28 13.641a4.73 4.73 0 0 1 1.05-.08 1.505 1.505 0 0 0 1.589-1.362c.045-.641-.454-1.657-1.397-1.691a8.34 8.34 0 0 0-1.816.113c-.869.159-3.259 1.05-3.122 1.84.147.703 2.838 1.362 3.69 1.18h.005Zm150.391-.431c-1.8.266-3.627.204-5.404-.188-6.67-1.362-10.445-3.497-11.603-4.257l.08-.25c2.56.085 5.108.261 7.657.517 4.428.437 6.097-.716 6.682-1.403.136.137.255.267.369.398.113.13.25.267.352.414.102.148.215.284.318.42.102.137.215.318.312.483.267.437.488.902.67 1.385.181.482.34 1.022.431 1.59.062.289.108.59.136.885v.006ZM381.4 61.734c-1.8 6.721-9.537 8.674-9.537 8.674s9.64 1.34 12.512-7.028c2.872-8.367-5.597-12.897-5.597-12.897s4.444 4.553 2.628 11.251h-.006Zm-2.991-2.64s-1.158 2.424-7.948 5.024c-6.789 2.6-10.32 0-10.32 0s.784 3.826 9.14 3.82c8.356-.005 9.128-8.844 9.128-8.844Zm-37.75-14.702c5.563 4.382 8.373 11.506 10.541 19.255-2.003.136-3.672-1.964-5.603-2.952-.187-1.998-.67-5.268-2.066-7.765-1.34-2.385-2.991-4.638-4.03-6.006l1.163-2.532h-.005Z"
    fill="#007236" fill-rule="nonzero" />
  <path
    d="M237.178 69.415c0 12.829-4.984 22.462-10.366 30.529-6.37 9.605-15.81 16.19-28.78 20.13-10.037 3.065-20.25 3.95-29.786.294 8.725 1.635 18.426.511 27.6-2.838l.017.017 3.082-1.22 1.533-.665 1.516-.715v-.017l2.191-1.101a68.71 68.71 0 0 0 6.074-3.718l1.817-1.334a57.459 57.459 0 0 0 4.864-4.065l1.601-1.555 2.288-2.453 2.117-2.582 1.42-1.93v-.018l1.05-1.498 2.838-4.803.869-1.737.113-.244 1.487-3.463 1.283-3.786v-.017l.454-1.555.721-3.049.5-3.048c.352-2.538.482-5.052.38-7.539-.017-.999-.08-1.964-.198-2.918l-.284-2.134c.011-.034 0-.08-.023-.114l-.369-2.032a23.743 23.743 0 0 0-.681-2.804l-.75-2.367-.385-1.022-.818-1.964-1.266-2.555-1.464-2.452c-3.168-4.899-7.59-9.14-13.21-12.335-24.325-13.778-52.39-9.844-67.865 11.665a39.468 39.468 0 0 0-1.901 2.884c.08-.25.17-.5.25-.738 2.764-7.607 11.381-18.307 19.84-21.957 3.984-1.72 9.196-2.992 14.458-3.605 18.165-2.203 38.01 6.653 46.333 16.235 6.153 7.05 11.438 18.989 11.438 32.187l.012.006Zm174.529 41.837c-1.283 1.334-3.599 2.197-5.421 3.599-3.928 3.054-8.248 5.87-15.043 6.641a54.391 54.391 0 0 1-3.418.267c20.675-7 35.048-28.298 35.048-50.057 0-.25-.034-.482-.057-.738a40.682 40.682 0 0 0-3.65-3.752c-6.403-5.96-11.989-10.235-11.989-10.235s1.85 0 10.587 3.576c1.953.795 3.304 1.522 4.24 2.169-.136-.715-.3-1.465-.488-2.169-1.59-1.464-4.132-3.485-7.334-4.899-5.688-2.497-10.74-5.87-10.74-5.87s4.921-.215 9.026 1.164c2.986.988 5.137 1.857 6.12 2.237a28.235 28.235 0 0 0-2.135-3.281l-8.084-3.917-10.87-.534 7.3-1.72h5.563c-1-.794-2.044-1.55-3.134-2.282l-6.222 1.204-10.933 1.135 7.817-3.434 5.433-1.266a37.341 37.341 0 0 0-1.982-1.096l-5.699.738-9.934 3.974 5.7-4.473 5.335-2.634c-.08-.034-.17-.08-.244-.114a17.782 17.782 0 0 1-1.901-1.056 18.443 18.443 0 0 1 3.15-.477c5.45-.42 11.62 1.26 12.546 1.533 3.105 1.93 5.846 4.065 8.321 6.903 14.573 16.871 8.89 52.435-6.925 68.915l.017-.051Zm-63.181-13.238c-.818 1.776-3.123 4.541-3.94 5.716-4.53 6.8-13.068 11.955-23.127 14.975.057-.034.102-.057.154-.085.624-.318 1.214-.664 1.8-1l1.918-1.169a51.868 51.868 0 0 0 1.884-1.265c.614-.438 1.22-.886 1.817-1.351l.017-.017a40.789 40.789 0 0 0 3.168-2.686 46.434 46.434 0 0 0 2.934-2.951c.114-.131.227-.267.352-.398v-.023c1.732-1.947 3.316-3.973 4.712-6.232.017-.029.057-.069.068-.097.346-.545.681-1.101 1-1.669.3-.51.601-1.05.885-1.59a36.866 36.866 0 0 0 1.59-3.303c.226-.545.482-1.113.697-1.68a48.75 48.75 0 0 0 1.17-3.27c.08-.25.147-.523.216-.784.397-1.283.738-2.588.982-3.973a.605.605 0 0 0 .034-.17c0-.057.017-.086.034-.137h-.017c.198-.925.363-1.862.482-2.815.227-1.647.364-3.304.403-4.968.017-.579.057-1.152.057-1.731a10 10 0 0 0-.08-1.368 7.757 7.757 0 0 0-.136-.886 8.793 8.793 0 0 0-.431-1.59 8.201 8.201 0 0 0-.67-1.384 3.71 3.71 0 0 0-.312-.483c-.114-.142-.204-.284-.318-.42a3.483 3.483 0 0 0-.352-.414 3.977 3.977 0 0 0-.369-.398c-5.552-5.483-18.023-4.45-20.152-13.794 6.642 7.465 18.96 6.086 24.847 14.737 6.244 9.253 3.048 19.13-1.317 28.61v.063Zm-164.408-33.13s-.369.466-6.12.551c-5.75.085-6.119-1.669-6.119-1.669s.715-1.6 5.819-.817c5.137.795 6.414 1.93 6.414 1.93l.006.006Zm167.093-1.169c-2.004.136-3.673-1.964-5.603-2.952-.187-1.998-.67-5.268-2.066-7.765-1.34-2.385-2.986-4.638-4.03-6.006l1.163-2.532c5.563 4.382 8.373 11.5 10.541 19.255h-.005Zm-161.689-.863c-.488-.136-8.401-2.452-12.443-2.384-4.144.057-11.206 1.022-11.206 1.022s3.168-4.854 11.825-4.854c8.384 0 11.637 5.847 11.824 6.222v-.006Zm85.536-9.406.681-5.319-.181-.17.181-.67-4.382-3.366-1.448-4.542-6.09-3.406V31.96l-9.804-5.12-1.317-4.599h-6.903l-7.085-1.805c1.079-.074 1.76-.09 1.76-.09s-7.152-1.363-15.525-.693c-5.251.431-7.284 2.395-7.97 3.406-1.266-.54-2.56-1-3.883-1.368.51-3.39 2.77-5.11 4.518-7.22 3.736 2.4 7.454-1.318 10.843-2.101.93 1.18.75 3.451 2.401 3.9 4.456-.602 8.839-1.516 12.943-.284.851.25 1.612 1.17 2.395 1.504 4.224 1.731 9.293 1.635 12.035 4.814.318 5.29 6.573 4.672 9.037 7.822.227 1.136-.38 1.437-.312 2.402 1.43 3.803 5.432 4.995 7.533 8.117-.795 3.293 3.366 5.433 3.9 8.742.153.897-.625 1.998-.58 2.998.03 1.703 1.25 2.934 2.084 4.217l.596 1.204.136.369c.017.057.017.08.034.13a18.55 18.55 0 0 1 .733 3.554l-6.335-8.305.005-.108Zm-76.782 5.49c-1.17-.341-11.025-3.208-20.578-3.605-9.44-.398-15.94 1.873-17.257 2.65 1.385-.981 9.956-6.834 17.438-6.266 7.72.567 19.13 6.528 20.397 7.22Zm5.381-3.338c-.5-.2-10.888-4.587-22.65-4.916-11.762-.33-24.126 2.248-24.841 2.395.51-.482 7.777-6.755 24.183-6.38 16.541.38 22.922 8.401 23.308 8.9Zm116.44-2.158-14.322-4.984 12.386 1.329 1.93 3.655h.006ZM207.96 49.785s-13.187-4.769-26.947-4.598c-13.76.17-26.976 2.299-26.976 2.299s8.305-8.266 27.912-8.101c19.608.165 26.011 10.405 26.011 10.405v-.005Zm106.648-16.037s-10.332 1.686-17.485 4.587c-6.05 2.463-14.838 8.952-14.838 8.952l-2.271-4.916s-.057 0-.114-.017c0-.102-.017-.187 0-.284.398-.488 2.18-1.737 8.402-4.995 10.587-5.518 26.311-3.333 26.311-3.333l-.005.006Zm3.553 9.48s-.199 3.031-4.257 3.463c-4.06.431-21.912-1.05-21.912-1.05s4.768-1.153 13.408-2.419c8.668-1.271 12.755 0 12.755 0l.006.006Zm16.207.028c-.034.568-.17 1.317-.3 2.1.033-.198.056-.414.056-.646 0-2.805-2.066-8.424-6.437-11.79-3.253-2.498-8.345-4.502-11.274-5.518a6.826 6.826 0 0 0-2.214-.733 3.704 3.704 0 0 0-.869 0c-.25.097-.38.182-.431.267-2.895-.67-6.772-.868-12.148-1.152-9.65-.5-18.977 2.316-26.868 7.38.227-3.872 7.573-8.89 9.65-10.06 6.165-3.485 14.59-5.279 23.473-4.518 9.083.783 18.694 5.637 23.161 10.541 2.98 3.247 4.615 7.652 4.218 14.192l-.017-.063Zm-16.207-2.951s-3.553-.585-8.855 0c-5.144.567-17.23 4.053-17.978 4.268.266-.227 2.27-1.816 10.558-5.517 9.026-4.03 15.026-2.1 15.026-2.1l1.25 3.405v-.056Zm-107.93.783c-.42-.114-15.668-4.785-29.218-3.77-13.795 1.034-24.875 3.089-24.875 3.089s7.084-7.022 27.06-7.573c19.358-.528 26.613 7.743 27.033 8.254Zm153.423-10.473-.908 3.985s-5.677 1.589-9.764 1.884c-4.087.295-9.435 3.815-9.435 3.815s5.535-4.615 9.435-6.398c4.638-2.117 10.672-3.292 10.672-3.292v.006Zm-50.79.851s-7.935-.636-18.562 1.351c-10.627 1.987-15.327 6.568-15.327 6.568-.817-1.033-1.85-1.714-2.838-2.418-.136-.114-.25-.216-.386-.318-.068-.057 1.635-5.018 18.494-7.703 12.353-1.965 18.563 2.52 18.563 2.52h.057Zm50.313 7.919h-12.04l11.62-2.441.42 2.441Zm18.25-3.701-2.168 2.645s-.17-1.277-3.219-1.38c-3.048-.101-5.551.739-5.551.739.3-1.153.624-2.271.885-3.15 0 0 .965-.37 4.666-.625 3.702-.256 5.393 1.77 5.393 1.77h-.005ZM365.29 23.462c-.398 1.499-.823 3.082-1.192 4.785-8.118 1.749-15.895 4.916-22.491 9.48-.37-.624-.602-1.214-.625-1.714-.017-1.885 3.333-5.137 4.826-6.301 4.268-3.417 12.102-6.267 19.47-6.244l.012-.006ZM214.47 37c-1.533-.75-14.674-7.04-29.53-6.642-14.856.397-21.412 4.218-22.162 4.7.886-.817 9.321-8.05 22.162-8.22 12.84-.17 27.873 9.106 29.53 10.162ZM372.89 15.57c.568-.113.568.239.596.585-2.952 6.006-4.882 12.988-6.914 19.868-.596-8.31 3.463-14.566 6.318-20.453Zm12.83 16.644L384 33.918s-3.435-1.873-5.564-2.128c-2.1-.239-6.55 1.021-6.55 1.021l.817-2.554c.017-.057.056-.13.056-.199 0-.068.04-.136.068-.215 0 0 1.505-.42 5.734 0a16.384 16.384 0 0 1 7.153 2.384l.005-.012Zm9.184-3.769c-.34.835-1.033 1.436-1.8 1.885a17.98 17.98 0 0 0-2.565.897h-.017c-2.754-2.515-4.803-4.542-11.172-4.542-1.84 0-3.684.068-5.518.216.568-1.873 1.306-4.314 2.97-4.655 5.948-1.237 12.386.029 17.2 2.748l.034.034c.51.397 1.629 1.55.862 3.462l.006-.045Z"
    fill="#fff" />
</svg>