<?xml version="1.0" encoding="UTF-8" standalone="no"?>
<!DOCTYPE svg PUBLIC "-//W3C//DTD SVG 1.1//EN" "http://www.w3.org/Graphics/SVG/1.1/DTD/svg11.dtd">
<svg width="100%" height="100%" viewBox="0 0 506 361" version="1.1" xmlns="http://www.w3.org/2000/svg" xmlns:xlink="http://www.w3.org/1999/xlink" xml:space="preserve" xmlns:serif="http://www.serif.com/" style="fill-rule:evenodd;clip-rule:evenodd;stroke-linejoin:round;stroke-miterlimit:2;">
    <g transform="matrix(1,0,0,1,-790.402,-34.0549)">
        <g id="Logo">
            <g>
                <g transform="matrix(1.29665,-0.347436,0.237658,0.886953,-467.658,-78.8836)">
                    <path d="M1030.5,531L1058.66,629.4L1116.66,585.26L1107.44,657.561L1206.74,632.75L1135.6,706.338L1202.83,734.5L1135.6,762.662L1206.74,836.25L1107.44,811.439L1116.66,883.74L1058.66,839.6L1030.5,938L1002.34,839.6L944.336,883.74L953.561,811.439L854.264,836.25L925.4,762.662L858.172,734.5L925.4,706.338L854.264,632.75L953.561,657.561L944.336,585.26L1002.34,629.4L1030.5,531Z" style="fill:rgb(255,41,36);"/>
                </g>
                <g transform="matrix(0.531469,-0.10706,0.10706,0.531469,230.841,-77.9611)">
                    <path d="M1238.65,784.505L1235.15,784.005L1233.82,783.838L1231.15,783.838L1230.15,783.671C1229.49,783.671 1228.82,783.671 1227.99,783.838L1227.49,783.838L1225.65,784.171L1224.99,784.338C1224.49,784.338 1223.82,784.505 1222.99,784.838L1222.82,784.838C1221.99,785.171 1221.15,785.338 1220.49,785.838L1220.49,786.005L1216.65,788.005L1215.82,788.671C1215.32,789.171 1214.82,789.838 1214.49,790.671L1211.99,794.505L1211.32,795.338C1210.99,795.838 1210.65,796.171 1210.32,797.171L1210.32,797.505L1208.82,799.671L1208.15,800.505C1207.65,801.005 1207.32,801.505 1206.99,802.505L1206.99,802.838L1205.99,804.171L1204.82,806.505L1203.82,807.671L1202.49,809.838L1200.82,813.171L1200.15,814.005C1199.65,814.505 1199.32,815.171 1199.15,816.005L1199.15,816.171L1196.15,819.671L1194.32,820.505L1192.82,819.171L1189.99,816.671L1188.65,814.671L1188.49,813.838C1188.32,813.171 1188.15,812.838 1187.49,812.171L1186.82,811.505L1186.65,810.505C1186.49,809.671 1186.15,809.338 1185.65,808.671L1184.99,807.671L1184.15,806.338L1182.82,804.671L1182.32,803.505C1181.99,802.671 1181.49,802.338 1180.99,801.505L1180.82,801.005L1179.65,799.338L1178.32,797.338L1177.32,796.005L1176.99,795.005C1176.82,794.338 1176.49,793.505 1175.99,792.838L1175.49,792.005C1174.99,791.338 1174.65,790.838 1173.82,790.171L1172.82,789.505L1172.49,788.838C1172.15,788.338 1171.82,787.838 1170.99,787.338L1170.49,787.171C1169.82,786.671 1169.15,786.505 1168.32,786.171L1167.65,786.005L1166.99,785.505C1166.49,785.171 1165.82,785.005 1165.32,784.838C1164.82,784.671 1164.32,784.505 1163.49,784.338C1162.65,784.171 1161.99,784.171 1161.15,784.171L1156.32,784.171L1154.32,784.338L1148.82,784.338C1148.15,784.338 1147.65,784.338 1146.99,784.671C1146.32,784.838 1145.65,785.005 1144.99,785.838L1144.65,786.338L1143.65,786.671C1142.99,787.005 1142.49,787.505 1141.99,788.338L1141.65,788.671L1141.15,789.338C1140.82,789.838 1140.49,790.338 1140.15,791.171C1139.82,792.005 1139.49,792.338 1139.32,793.338L1139.32,793.671L1139.15,795.838L1138.82,796.671C1138.65,797.171 1138.49,798.005 1138.49,798.838L1138.49,801.338L1138.65,803.171L1138.32,805.505L1138.15,807.338L1138.15,810.838C1138.15,811.671 1138.32,812.005 1138.65,813.005L1138.65,813.338L1138.49,814.338C1138.32,815.171 1138.32,815.838 1138.49,816.671L1138.49,817.338L1138.82,819.838L1138.65,821.338L1138.49,822.671C1138.32,823.671 1138.49,824.171 1138.65,825.171L1138.65,825.838L1138.82,827.838L1138.49,828.671C1138.32,829.338 1138.15,829.838 1138.15,830.838C1138.15,831.671 1138.32,832.171 1138.65,833.171L1138.65,835.671L1138.32,836.838C1138.15,837.671 1138.32,838.338 1138.65,839.171L1138.82,839.671L1138.49,840.671C1138.32,841.505 1138.15,842.338 1138.32,843.171L1138.65,843.838L1138.49,844.838C1138.32,845.671 1138.32,846.171 1138.65,847.171L1138.99,848.005L1138.65,849.005C1138.49,849.671 1138.32,850.171 1138.32,850.838C1138.32,851.671 1138.32,852.171 1138.65,853.171L1138.99,853.838L1138.49,855.005C1138.15,856.005 1138.15,856.671 1138.32,857.505L1138.49,858.171L1138.65,860.171L1138.65,862.005L1138.32,863.005C1138.15,863.671 1138.15,864.338 1138.15,865.005C1138.15,865.671 1138.49,866.338 1138.65,867.171L1138.99,868.338L1138.65,869.171C1138.49,869.838 1138.32,870.505 1138.65,871.338L1138.99,872.338L1138.49,875.171C1138.32,876.005 1138.49,877.005 1138.82,877.838L1138.99,878.171L1139.82,880.671L1139.82,881.505C1139.82,882.171 1139.99,882.505 1140.49,883.171C1140.82,883.671 1141.32,884.005 1141.99,884.505L1143.15,885.171L1143.99,885.671C1144.49,885.838 1144.99,886.171 1145.82,886.338L1146.99,886.505L1147.65,886.838C1148.15,887.005 1148.82,887.005 1149.65,886.838L1150.65,886.671L1151.49,887.005C1152.15,887.171 1152.82,887.171 1153.65,887.005L1154.82,886.838L1157.32,887.171C1158.15,887.338 1158.82,887.338 1159.82,887.005L1160.49,886.838L1162.82,886.505L1163.49,886.338C1163.99,886.171 1164.49,886.005 1165.15,885.505L1165.82,885.005L1166.49,884.671C1166.99,884.505 1167.65,884.005 1168.15,883.338L1168.49,883.005L1169.32,882.005C1169.82,881.338 1170.15,880.671 1170.32,879.838L1170.32,879.671L1170.99,877.838L1171.32,876.838C1171.49,876.171 1171.65,875.505 1171.65,874.671L1171.49,872.005L1171.32,869.838L1171.49,867.338L1171.49,866.338C1171.49,865.505 1171.32,865.171 1171.15,864.338L1170.99,863.671L1171.32,862.505C1171.49,861.505 1171.49,860.671 1171.32,859.838L1171.15,859.338L1171.15,857.005L1171.32,856.171C1171.49,855.505 1171.49,855.005 1171.32,854.171L1171.15,853.338L1171.65,850.838L1172.49,848.838L1173.65,847.671L1174.82,846.671L1176.99,849.338L1178.49,851.005L1179.15,852.005C1179.65,852.671 1180.15,853.171 1180.82,853.838L1181.65,854.505L1182.82,856.171L1183.82,857.338L1184.15,858.171C1184.32,858.671 1184.65,859.171 1185.49,859.838L1186.49,860.338L1186.65,861.338C1186.82,862.005 1187.15,862.505 1187.82,863.171L1189.15,864.338C1189.82,864.838 1190.32,865.171 1190.82,865.505C1191.32,865.838 1191.82,866.005 1192.65,866.338L1192.82,866.338C1193.65,866.505 1194.65,866.505 1195.49,866.171L1196.49,866.171C1197.15,866.171 1197.82,866.005 1198.65,865.338C1199.49,864.671 1199.99,864.338 1200.49,863.671L1201.15,862.838C1201.82,862.171 1202.15,861.838 1202.49,860.838L1202.99,859.838L1203.99,858.338L1204.99,857.671C1205.65,857.171 1206.15,856.838 1206.65,856.005L1206.82,855.505L1207.49,854.005L1208.82,852.505L1209.82,850.838L1211.32,849.005L1214.65,846.671L1215.99,848.005L1215.99,849.005C1215.99,849.671 1216.15,850.171 1216.32,850.838C1216.49,851.338 1216.49,852.005 1216.82,852.838L1217.32,854.005L1217.32,855.671L1217.15,856.838C1216.99,857.838 1217.15,858.338 1217.49,859.338L1217.65,859.838L1217.65,862.005L1217.49,863.671L1217.15,864.838C1216.99,865.671 1216.82,866.505 1217.15,867.338L1217.32,867.671L1217.15,868.838L1217.15,871.005L1217.32,871.671L1217.65,876.171L1217.99,877.838L1217.99,878.838C1217.99,879.505 1218.32,880.171 1218.82,880.838L1219.49,881.505L1219.99,882.505C1220.32,883.171 1220.65,883.671 1221.32,884.171C1221.99,884.671 1222.65,885.171 1223.49,885.505L1223.99,885.671L1224.65,886.171C1225.15,886.505 1225.82,886.671 1226.82,886.671L1228.15,886.505L1229.15,886.838C1229.82,887.005 1230.65,886.838 1231.49,886.838L1239.15,886.838C1239.82,886.838 1240.49,886.838 1241.32,886.671L1241.65,886.505L1243.65,885.838L1245.82,884.671L1246.49,884.338C1246.99,884.171 1247.32,883.671 1247.82,882.838L1248.15,882.338L1249.32,880.005L1249.65,879.171C1249.82,878.505 1249.99,877.838 1249.99,877.005L1249.99,872.505L1250.32,870.171L1250.49,869.171C1250.49,868.505 1250.32,867.838 1249.99,867.005L1249.65,866.338L1249.82,865.338C1249.99,864.671 1249.99,864.005 1249.99,863.005L1249.82,861.838L1249.99,860.171L1249.99,856.338L1249.65,853.838L1249.99,852.838C1250.15,852.005 1250.15,851.505 1250.15,850.505L1250.15,847.838L1250.32,846.838L1250.32,844.671L1250.15,843.838L1249.99,841.671L1249.65,839.838L1249.99,838.838C1250.15,838.171 1250.32,837.505 1250.15,836.671L1249.99,835.671L1249.82,833.505L1250.32,831.005C1250.49,830.171 1250.49,829.838 1250.49,828.838L1250.49,826.671C1250.49,826.005 1250.32,825.838 1250.15,824.838L1249.99,823.671L1250.15,822.671C1250.32,821.838 1250.32,821.338 1250.32,820.338L1250.32,819.505L1250.49,818.671C1250.65,818.005 1250.49,817.505 1250.32,816.505L1250.15,815.338L1249.99,813.838L1249.99,811.338L1250.15,810.338C1250.32,809.505 1250.15,809.005 1249.99,808.005L1249.99,807.671L1250.15,805.505L1250.15,804.505C1250.15,803.838 1249.99,803.171 1249.82,802.171L1249.82,797.171L1249.49,795.338L1249.65,794.505C1249.65,794.005 1249.49,793.338 1248.99,792.505L1248.49,791.505L1248.32,790.671C1248.15,789.838 1247.82,789.338 1246.99,788.838L1246.32,788.338L1244.82,787.005L1243.99,786.338C1243.49,785.838 1242.82,785.671 1241.99,785.338L1241.15,785.171L1240.49,784.838C1239.99,784.671 1239.49,784.671 1238.65,784.505Z" style="fill:rgb(255,246,59);fill-rule:nonzero;"/>
                    <path d="M1309.32,760.171L1308.99,764.005L1308.49,765.838L1307.99,768.171L1307.32,769.338L1305.99,771.338L1305.15,772.505L1303.15,773.671L1301.32,775.005L1299.99,775.671L1298.82,775.838C1297.99,776.005 1297.32,776.171 1296.49,776.505L1293.99,776.505L1290.15,776.338L1286.15,776.171L1284.32,775.171L1281.65,772.838L1280.32,771.338L1279.15,769.671L1278.99,768.671C1278.99,768.005 1278.82,767.505 1278.32,766.671L1277.99,766.005L1277.99,760.505L1278.65,758.005L1279.49,756.671L1280.15,755.838C1280.65,755.338 1280.99,754.838 1281.32,753.838L1281.65,752.838L1282.32,752.338C1282.82,752.005 1283.49,751.505 1283.99,750.838L1284.49,750.338L1286.49,749.671L1288.32,748.671L1290.65,748.005L1293.99,748.338L1296.65,748.838L1298.15,749.338L1300.32,749.838L1300.99,750.338C1301.49,750.838 1301.99,751.171 1302.65,751.505L1303.32,751.838L1305.65,752.838L1306.15,753.671C1306.49,754.171 1306.82,754.838 1307.32,755.505L1307.82,756.171L1308.65,758.338L1309.32,760.171ZM1347.82,760.338L1348.32,764.505L1347.82,765.171C1347.49,765.671 1347.15,766.505 1346.99,767.338L1346.82,768.171L1346.49,769.505L1345.65,770.338C1344.99,771.005 1344.65,771.505 1344.32,772.338L1344.15,772.505L1342.15,773.505L1340.15,774.838L1338.65,775.505L1336.99,775.838L1334.82,776.171L1332.99,776.505L1329.15,776.671L1327.15,776.505L1326.15,776.171C1325.49,775.838 1324.82,775.505 1323.99,775.338L1322.82,775.171L1321.99,774.505L1319.65,773.171L1319.49,772.505C1319.32,771.838 1318.99,771.338 1318.32,770.671L1317.82,770.171L1317.15,767.838L1317.15,767.005C1317.15,766.338 1316.99,766.005 1316.65,765.005L1316.32,764.338L1316.49,760.005L1316.99,759.005C1317.32,758.338 1317.65,757.838 1317.82,756.838L1317.99,756.671L1319.49,754.505L1320.82,752.838L1321.65,751.505L1322.82,751.171C1323.65,751.005 1324.15,750.671 1324.99,750.005L1325.65,749.671L1327.49,748.671L1328.99,748.005L1332.82,748.171L1334.65,748.505L1337.32,748.838L1338.82,749.838L1340.82,751.005L1342.82,751.671L1343.32,752.505C1343.65,753.171 1343.99,753.505 1344.82,754.171L1345.82,754.838L1345.99,755.505C1346.15,755.838 1346.32,756.505 1346.82,757.171L1347.32,758.171L1347.82,760.338ZM1363.82,807.005L1363.65,803.505L1363.99,802.171C1364.15,801.171 1364.15,800.838 1363.99,799.838L1363.99,799.005L1363.49,797.338L1362.82,795.505L1362.32,794.505C1361.99,793.671 1361.65,793.171 1361.15,792.338L1360.65,791.505L1360.15,791.005C1359.82,790.671 1359.49,790.005 1358.82,789.505C1358.15,788.838 1357.65,788.671 1356.99,788.171L1356.15,787.671L1355.32,787.005C1354.82,786.505 1354.15,786.338 1353.32,786.005L1350.49,785.505L1348.49,785.338L1347.82,785.005C1347.49,784.838 1346.65,784.505 1345.82,784.671L1342.49,785.005L1341.49,785.005C1340.82,785.005 1340.32,784.838 1339.65,785.005C1338.99,785.005 1338.49,785.005 1337.65,785.505L1337.15,785.671L1335.15,786.505L1333.99,787.005C1333.15,787.338 1332.65,787.505 1331.99,788.171L1331.82,788.338L1329.99,789.671L1329.32,790.338C1328.82,790.838 1328.49,791.505 1328.32,792.338L1328.32,792.671L1327.82,793.671C1327.49,794.338 1327.32,794.671 1327.15,795.671L1327.15,796.171L1326.65,797.338C1326.32,798.171 1326.32,798.838 1326.32,799.671L1326.32,800.171L1325.99,802.005L1325.99,806.171L1325.82,807.171C1325.65,807.838 1325.65,808.505 1325.65,809.171C1325.65,810.005 1325.65,810.505 1325.82,811.505L1325.99,812.505L1325.99,817.671C1325.99,818.338 1325.99,819.005 1326.15,820.005L1326.32,820.838L1326.15,821.671C1325.99,822.171 1325.99,823.005 1326.15,823.838L1326.32,824.671L1326.15,826.338L1326.15,831.005L1325.82,831.838C1325.65,832.505 1325.49,833.171 1325.49,834.005L1325.82,839.005L1325.65,841.005L1325.49,842.005C1325.32,842.671 1325.32,843.171 1325.32,844.171L1325.32,845.005L1324.49,846.671L1323.99,847.838C1323.65,848.505 1323.49,849.338 1323.49,850.171L1323.49,850.671L1321.99,852.171L1320.99,853.505L1319.65,854.338L1318.49,854.505C1317.82,854.671 1317.15,854.671 1316.32,855.171L1315.82,855.505L1311.82,855.171L1309.32,855.005L1307.49,854.171L1306.32,853.505L1305.15,852.005L1303.49,850.338L1303.49,849.338C1303.49,848.505 1303.15,847.838 1302.65,847.171L1302.32,846.671L1302.15,844.838L1302.15,843.838C1302.15,843.005 1301.99,842.505 1301.65,841.671L1301.15,840.838L1301.15,837.005L1301.65,833.671C1301.82,832.671 1301.82,832.171 1301.65,831.171L1301.49,830.838L1301.49,829.505C1301.49,828.671 1301.49,828.171 1301.32,827.171L1301.15,826.338L1301.15,824.338L1301.32,823.338C1301.49,822.671 1301.32,822.171 1301.15,821.171L1300.99,820.338L1301.32,818.505L1301.65,817.338C1301.82,816.338 1301.82,816.005 1301.82,815.505C1301.82,815.005 1301.65,814.505 1301.49,813.505L1301.32,812.338L1300.99,810.338L1301.15,808.338L1301.15,806.505L1301.32,803.505C1301.32,802.505 1301.49,802.171 1301.32,801.171C1301.15,800.171 1300.99,799.671 1300.82,798.838L1300.65,798.005L1300.82,797.171C1300.99,796.338 1300.65,795.838 1300.15,795.005L1299.99,794.671L1299.82,793.505C1299.65,792.671 1299.49,792.005 1298.99,791.338L1298.82,791.005L1298.32,790.338C1297.99,789.838 1297.32,789.505 1296.65,789.005L1295.32,788.171L1294.99,787.671C1294.65,787.338 1294.15,786.838 1293.32,786.505C1292.49,786.171 1291.99,786.171 1291.15,786.005L1289.65,785.505C1288.99,785.171 1288.15,785.171 1287.32,785.171L1286.15,785.171L1285.32,785.005C1284.82,784.838 1284.15,784.838 1283.32,784.838L1280.82,785.005L1278.49,785.338L1277.49,785.171C1276.82,785.171 1275.99,785.338 1275.15,786.005L1274.82,786.171L1273.65,786.505C1272.82,786.671 1271.99,786.838 1271.32,787.338L1270.65,787.838L1269.65,788.338C1268.99,788.838 1268.49,789.171 1267.99,790.005L1267.99,790.171L1266.65,791.505L1265.49,793.505L1264.82,794.338C1264.49,795.005 1264.32,795.671 1264.32,796.671L1264.49,797.171L1263.65,799.338L1263.49,800.338C1263.32,801.171 1263.32,801.671 1263.32,802.671L1263.49,803.671L1262.82,807.505L1262.82,813.671L1262.65,814.505C1262.65,815.171 1262.82,815.338 1263.15,816.338L1263.49,817.338L1263.49,819.505L1263.15,820.505C1262.99,821.338 1262.99,821.838 1262.99,822.838L1262.99,823.338L1263.32,825.671L1262.82,828.671C1262.65,829.505 1262.99,830.005 1263.32,831.005L1263.65,831.838L1263.65,835.505L1263.32,836.671C1262.99,837.505 1262.99,838.338 1263.32,839.171L1263.49,839.505L1263.32,840.671C1263.15,841.671 1263.15,842.005 1263.32,843.005L1263.82,845.338L1264.15,847.671L1264.15,850.505C1264.15,851.171 1264.32,851.671 1264.82,852.505L1265.32,853.338L1265.99,855.671L1266.49,857.005L1266.32,858.171C1266.32,859.005 1266.49,859.671 1267.15,860.338L1267.49,861.005L1268.15,862.505L1269.15,865.505C1269.32,866.171 1269.65,867.005 1270.15,867.671L1270.32,867.838L1271.49,869.505L1272.65,871.005L1275.82,874.171L1276.82,875.838L1277.32,876.505C1277.65,877.005 1278.32,877.171 1278.99,877.671L1281.82,879.505L1282.15,880.005C1282.49,880.505 1282.99,880.671 1283.82,881.005L1284.99,881.505L1286.65,882.505L1287.32,883.171C1287.82,883.505 1288.65,883.838 1289.49,884.005L1290.15,884.171L1290.82,884.671C1291.32,885.005 1291.99,885.171 1292.82,885.338L1294.15,885.505L1295.82,885.838L1298.15,886.671L1298.82,887.005C1299.32,887.171 1299.99,887.338 1300.82,887.505L1302.49,887.671C1303.32,887.838 1304.15,887.838 1304.99,887.671L1305.65,887.671L1306.82,888.005C1307.82,888.338 1308.32,888.338 1308.99,888.338C1309.65,888.338 1310.32,888.338 1311.15,888.171L1311.65,888.005L1315.15,888.338L1317.32,888.171L1320.65,888.171C1321.15,888.171 1321.65,888.171 1322.65,887.838L1324.15,887.338L1324.82,887.338C1325.32,887.338 1325.99,887.171 1326.82,887.005L1327.82,886.838L1328.99,886.671C1329.82,886.671 1330.49,886.338 1331.32,885.838L1333.49,885.505L1334.65,885.338C1335.49,885.171 1336.32,884.838 1336.99,884.338L1337.15,884.338L1338.82,883.338L1339.99,883.005C1340.82,882.838 1341.49,882.505 1342.15,882.005L1342.32,881.838L1343.99,880.838L1345.32,880.171C1346.15,879.838 1346.82,879.338 1347.32,878.671L1347.32,878.505L1348.65,876.838L1349.82,876.338C1350.49,876.005 1350.99,875.505 1351.49,875.005C1351.99,874.505 1352.49,874.171 1352.99,873.338L1353.65,872.505L1354.32,871.338L1354.99,869.671L1355.82,868.671C1356.32,867.838 1356.82,867.338 1357.15,866.505L1358.82,863.171C1359.15,862.338 1359.32,861.671 1359.32,860.838L1359.32,860.671L1359.99,859.671C1360.49,859.005 1360.82,858.171 1361.15,857.338L1361.32,857.005L1361.82,854.505L1362.15,853.505C1362.32,852.671 1362.32,852.171 1362.32,851.338L1362.32,850.671L1362.49,849.838C1362.65,849.171 1362.82,849.005 1362.82,848.005L1362.99,846.838L1363.15,846.005C1363.32,845.505 1363.32,844.671 1363.15,843.838L1362.99,843.005L1363.99,839.171L1364.15,838.171C1364.32,837.338 1364.15,837.005 1364.15,836.005L1364.15,835.171L1364.32,834.171C1364.49,833.505 1364.32,832.838 1364.32,831.838L1364.32,830.671L1363.65,827.338L1364.15,825.005L1364.32,824.005C1364.49,823.171 1364.49,822.671 1364.49,821.671L1364.49,820.005C1364.49,819.338 1364.15,818.671 1363.99,817.671L1363.82,816.838L1364.15,816.005C1364.32,815.338 1364.49,814.838 1364.49,814.005L1364.49,813.838C1364.49,812.838 1364.49,812.505 1364.32,811.505L1364.15,811.171L1364.32,810.171C1364.49,809.505 1364.32,808.838 1363.99,807.838L1363.82,807.005Z" style="fill:rgb(255,246,59);fill-rule:nonzero;"/>
                    <path d="M1423.82,760.171L1423.49,764.005L1422.99,765.838L1422.49,768.171L1421.82,769.338L1420.49,771.338L1419.65,772.505L1417.65,773.671L1415.82,775.005L1414.49,775.671L1413.32,775.838C1412.49,776.005 1411.82,776.171 1410.99,776.505L1408.49,776.505L1404.65,776.338L1400.65,776.171L1398.82,775.171L1396.15,772.838L1394.82,771.338L1393.65,769.671L1393.49,768.671C1393.49,768.005 1393.32,767.505 1392.82,766.671L1392.49,766.005L1392.49,760.505L1393.15,758.005L1393.99,756.671L1394.65,755.838C1395.15,755.338 1395.49,754.838 1395.82,753.838L1396.15,752.838L1396.82,752.338C1397.32,752.005 1397.99,751.505 1398.49,750.838L1398.99,750.338L1400.99,749.671L1402.82,748.671L1405.15,748.005L1408.49,748.338L1411.15,748.838L1412.65,749.338L1414.82,749.838L1415.49,750.338C1415.99,750.838 1416.49,751.171 1417.15,751.505L1417.82,751.838L1420.15,752.838L1420.65,753.671C1420.99,754.171 1421.32,754.838 1421.82,755.505L1422.32,756.171L1423.15,758.338L1423.82,760.171ZM1462.32,760.338L1462.82,764.505L1462.32,765.171C1461.99,765.671 1461.65,766.505 1461.49,767.338L1461.32,768.171L1460.99,769.505L1460.15,770.338C1459.49,771.005 1459.15,771.505 1458.82,772.338L1458.65,772.505L1456.65,773.505L1454.65,774.838L1453.15,775.505L1451.49,775.838L1449.32,776.171L1447.49,776.505L1443.65,776.671L1441.65,776.505L1440.65,776.171C1439.99,775.838 1439.32,775.505 1438.49,775.338L1437.32,775.171L1436.49,774.505L1434.15,773.171L1433.99,772.505C1433.82,771.838 1433.49,771.338 1432.82,770.671L1432.32,770.171L1431.65,767.838L1431.65,767.005C1431.65,766.338 1431.49,766.005 1431.15,765.005L1430.82,764.338L1430.99,760.005L1431.49,759.005C1431.82,758.338 1432.15,757.838 1432.32,756.838L1432.49,756.671L1433.99,754.505L1435.32,752.838L1436.15,751.505L1437.32,751.171C1438.15,751.005 1438.65,750.671 1439.49,750.005L1440.15,749.671L1441.99,748.671L1443.49,748.005L1447.32,748.171L1449.15,748.505L1451.82,748.838L1453.32,749.838L1455.32,751.005L1457.32,751.671L1457.82,752.505C1458.15,753.171 1458.49,753.505 1459.32,754.171L1460.32,754.838L1460.49,755.505C1460.65,755.838 1460.82,756.505 1461.32,757.171L1461.82,758.171L1462.32,760.338ZM1478.32,807.005L1478.15,803.505L1478.49,802.171C1478.65,801.171 1478.65,800.838 1478.49,799.838L1478.49,799.005L1477.99,797.338L1477.32,795.505L1476.82,794.505C1476.49,793.671 1476.15,793.171 1475.65,792.338L1475.15,791.505L1474.65,791.005C1474.32,790.671 1473.99,790.005 1473.32,789.505C1472.65,788.838 1472.15,788.671 1471.49,788.171L1470.65,787.671L1469.82,787.005C1469.32,786.505 1468.65,786.338 1467.82,786.005L1464.99,785.505L1462.99,785.338L1462.32,785.005C1461.99,784.838 1461.15,784.505 1460.32,784.671L1456.99,785.005L1455.99,785.005C1455.32,785.005 1454.82,784.838 1454.15,785.005C1453.49,785.005 1452.99,785.005 1452.15,785.505L1451.65,785.671L1449.65,786.505L1448.49,787.005C1447.65,787.338 1447.15,787.505 1446.49,788.171L1446.32,788.338L1444.49,789.671L1443.82,790.338C1443.32,790.838 1442.99,791.505 1442.82,792.338L1442.82,792.671L1442.32,793.671C1441.99,794.338 1441.82,794.671 1441.65,795.671L1441.65,796.171L1441.15,797.338C1440.82,798.171 1440.82,798.838 1440.82,799.671L1440.82,800.171L1440.49,802.005L1440.49,806.171L1440.32,807.171C1440.15,807.838 1440.15,808.505 1440.15,809.171C1440.15,810.005 1440.15,810.505 1440.32,811.505L1440.49,812.505L1440.49,817.671C1440.49,818.338 1440.49,819.005 1440.65,820.005L1440.82,820.838L1440.65,821.671C1440.49,822.171 1440.49,823.005 1440.65,823.838L1440.82,824.671L1440.65,826.338L1440.65,831.005L1440.32,831.838C1440.15,832.505 1439.99,833.171 1439.99,834.005L1440.32,839.005L1440.15,841.005L1439.99,842.005C1439.82,842.671 1439.82,843.171 1439.82,844.171L1439.82,845.005L1438.99,846.671L1438.49,847.838C1438.15,848.505 1437.99,849.338 1437.99,850.171L1437.99,850.671L1436.49,852.171L1435.49,853.505L1434.15,854.338L1432.99,854.505C1432.32,854.671 1431.65,854.671 1430.82,855.171L1430.32,855.505L1426.32,855.171L1423.82,855.005L1421.99,854.171L1420.82,853.505L1419.65,852.005L1417.99,850.338L1417.99,849.338C1417.99,848.505 1417.65,847.838 1417.15,847.171L1416.82,846.671L1416.65,844.838L1416.65,843.838C1416.65,843.005 1416.49,842.505 1416.15,841.671L1415.65,840.838L1415.65,837.005L1416.15,833.671C1416.32,832.671 1416.32,832.171 1416.15,831.171L1415.99,830.838L1415.99,829.505C1415.99,828.671 1415.99,828.171 1415.82,827.171L1415.65,826.338L1415.65,824.338L1415.82,823.338C1415.99,822.671 1415.82,822.171 1415.65,821.171L1415.49,820.338L1415.82,818.505L1416.15,817.338C1416.32,816.338 1416.32,816.005 1416.32,815.505C1416.32,815.005 1416.15,814.505 1415.99,813.505L1415.82,812.338L1415.49,810.338L1415.65,808.338L1415.65,806.505L1415.82,803.505C1415.82,802.505 1415.99,802.171 1415.82,801.171C1415.65,800.171 1415.49,799.671 1415.32,798.838L1415.15,798.005L1415.32,797.171C1415.49,796.338 1415.15,795.838 1414.65,795.005L1414.49,794.671L1414.32,793.505C1414.15,792.671 1413.99,792.005 1413.49,791.338L1413.32,791.005L1412.82,790.338C1412.49,789.838 1411.82,789.505 1411.15,789.005L1409.82,788.171L1409.49,787.671C1409.15,787.338 1408.65,786.838 1407.82,786.505C1406.99,786.171 1406.49,786.171 1405.65,786.005L1404.15,785.505C1403.49,785.171 1402.65,785.171 1401.82,785.171L1400.65,785.171L1399.82,785.005C1399.32,784.838 1398.65,784.838 1397.82,784.838L1395.32,785.005L1392.99,785.338L1391.99,785.171C1391.32,785.171 1390.49,785.338 1389.65,786.005L1389.32,786.171L1388.15,786.505C1387.32,786.671 1386.49,786.838 1385.82,787.338L1385.15,787.838L1384.15,788.338C1383.49,788.838 1382.99,789.171 1382.49,790.005L1382.49,790.171L1381.15,791.505L1379.99,793.505L1379.32,794.338C1378.99,795.005 1378.82,795.671 1378.82,796.671L1378.99,797.171L1378.15,799.338L1377.99,800.338C1377.82,801.171 1377.82,801.671 1377.82,802.671L1377.99,803.671L1377.32,807.505L1377.32,813.671L1377.15,814.505C1377.15,815.171 1377.32,815.338 1377.65,816.338L1377.99,817.338L1377.99,819.505L1377.65,820.505C1377.49,821.338 1377.49,821.838 1377.49,822.838L1377.49,823.338L1377.82,825.671L1377.32,828.671C1377.15,829.505 1377.49,830.005 1377.82,831.005L1378.15,831.838L1378.15,835.505L1377.82,836.671C1377.49,837.505 1377.49,838.338 1377.82,839.171L1377.99,839.505L1377.82,840.671C1377.65,841.671 1377.65,842.005 1377.82,843.005L1378.32,845.338L1378.65,847.671L1378.65,850.505C1378.65,851.171 1378.82,851.671 1379.32,852.505L1379.82,853.338L1380.49,855.671L1380.99,857.005L1380.82,858.171C1380.82,859.005 1380.99,859.671 1381.65,860.338L1381.99,861.005L1382.65,862.505L1383.65,865.505C1383.82,866.171 1384.15,867.005 1384.65,867.671L1384.82,867.838L1385.99,869.505L1387.15,871.005L1390.32,874.171L1391.32,875.838L1391.82,876.505C1392.15,877.005 1392.82,877.171 1393.49,877.671L1396.32,879.505L1396.65,880.005C1396.99,880.505 1397.49,880.671 1398.32,881.005L1399.49,881.505L1401.15,882.505L1401.82,883.171C1402.32,883.505 1403.15,883.838 1403.99,884.005L1404.65,884.171L1405.32,884.671C1405.82,885.005 1406.49,885.171 1407.32,885.338L1408.65,885.505L1410.32,885.838L1412.65,886.671L1413.32,887.005C1413.82,887.171 1414.49,887.338 1415.32,887.505L1416.99,887.671C1417.82,887.838 1418.65,887.838 1419.49,887.671L1420.15,887.671L1421.32,888.005C1422.32,888.338 1422.82,888.338 1423.49,888.338C1424.15,888.338 1424.82,888.338 1425.65,888.171L1426.15,888.005L1429.65,888.338L1431.82,888.171L1435.15,888.171C1435.65,888.171 1436.15,888.171 1437.15,887.838L1438.65,887.338L1439.32,887.338C1439.82,887.338 1440.49,887.171 1441.32,887.005L1442.32,886.838L1443.49,886.671C1444.32,886.671 1444.99,886.338 1445.82,885.838L1447.99,885.505L1449.15,885.338C1449.99,885.171 1450.82,884.838 1451.49,884.338L1451.65,884.338L1453.32,883.338L1454.49,883.005C1455.32,882.838 1455.99,882.505 1456.65,882.005L1456.82,881.838L1458.49,880.838L1459.82,880.171C1460.65,879.838 1461.32,879.338 1461.82,878.671L1461.82,878.505L1463.15,876.838L1464.32,876.338C1464.99,876.005 1465.49,875.505 1465.99,875.005C1466.49,874.505 1466.99,874.171 1467.49,873.338L1468.15,872.505L1468.82,871.338L1469.49,869.671L1470.32,868.671C1470.82,867.838 1471.32,867.338 1471.65,866.505L1473.32,863.171C1473.65,862.338 1473.82,861.671 1473.82,860.838L1473.82,860.671L1474.49,859.671C1474.99,859.005 1475.32,858.171 1475.65,857.338L1475.82,857.005L1476.32,854.505L1476.65,853.505C1476.82,852.671 1476.82,852.171 1476.82,851.338L1476.82,850.671L1476.99,849.838C1477.15,849.171 1477.32,849.005 1477.32,848.005L1477.49,846.838L1477.65,846.005C1477.82,845.505 1477.82,844.671 1477.65,843.838L1477.49,843.005L1478.49,839.171L1478.65,838.171C1478.82,837.338 1478.65,837.005 1478.65,836.005L1478.65,835.171L1478.82,834.171C1478.99,833.505 1478.82,832.838 1478.82,831.838L1478.82,830.671L1478.15,827.338L1478.65,825.005L1478.82,824.005C1478.99,823.171 1478.99,822.671 1478.99,821.671L1478.99,820.005C1478.99,819.338 1478.65,818.671 1478.49,817.671L1478.32,816.838L1478.65,816.005C1478.82,815.338 1478.99,814.838 1478.99,814.005L1478.99,813.838C1478.99,812.838 1478.99,812.505 1478.82,811.505L1478.65,811.171L1478.82,810.171C1478.99,809.505 1478.82,808.838 1478.49,807.838L1478.32,807.005Z" style="fill:rgb(255,246,59);fill-rule:nonzero;"/>
                    <path d="M1541.15,872.005L1545.99,872.338L1547.49,872.505L1549.99,873.671L1551.15,875.505L1553.15,879.171L1554.65,881.005L1554.99,881.838C1555.32,882.338 1555.82,882.838 1556.49,883.505L1557.32,884.171L1557.82,884.838C1558.15,885.338 1558.82,885.505 1559.65,885.838L1561.32,886.505C1561.82,886.671 1562.49,886.838 1563.32,887.005L1564.82,887.171L1565.65,887.505C1566.15,887.838 1566.99,887.838 1567.82,887.838L1568.15,887.838L1570.65,887.505L1574.32,887.505L1575.49,887.671C1576.32,887.838 1576.99,887.838 1577.82,887.838C1578.65,887.838 1579.15,887.505 1579.99,887.171L1580.99,886.838L1582.65,886.505L1583.82,886.171C1584.65,885.838 1585.15,885.671 1585.65,885.338C1585.99,885.005 1586.49,884.505 1586.82,884.005C1587.15,883.505 1587.32,882.671 1587.15,881.671L1586.99,881.005L1587.15,880.338C1587.15,879.838 1587.15,879.171 1586.99,878.505C1586.82,877.838 1586.65,877.171 1586.32,876.338L1585.99,875.505L1585.15,873.838L1584.65,871.338C1584.49,870.338 1584.32,869.838 1584.15,869.171C1583.99,868.505 1583.82,867.671 1583.32,867.005L1582.65,865.838L1582.49,865.005C1582.49,864.505 1582.32,864.005 1582.15,863.171C1581.99,862.671 1581.65,862.005 1581.15,861.338L1580.32,860.338L1580.32,859.505C1580.32,858.838 1580.15,858.338 1579.99,857.671C1579.82,856.838 1579.49,856.171 1578.99,855.505L1578.49,854.505L1577.65,852.505L1577.32,851.171L1577.15,850.005C1576.99,849.171 1576.65,848.671 1576.32,847.838L1575.82,846.838L1574.99,845.005L1574.49,843.171L1574.32,842.171C1574.15,841.338 1573.99,841.005 1573.65,840.171L1573.49,839.671L1572.49,837.671L1571.82,836.005L1571.32,834.171L1570.15,831.838L1569.32,830.005L1568.99,829.171C1568.82,828.338 1568.65,827.838 1568.15,827.171L1567.82,826.671L1566.82,824.171L1566.65,823.338C1566.49,822.838 1566.32,822.171 1565.82,821.505L1565.49,820.838L1565.32,819.671C1565.32,819.005 1564.82,818.338 1564.15,817.671L1563.65,817.171L1563.82,816.171C1563.82,815.338 1563.49,814.671 1562.99,814.005L1562.15,813.171L1561.49,811.005L1561.49,810.338C1561.49,809.838 1561.15,809.338 1560.65,808.505L1560.15,807.838L1560.15,806.671C1559.99,805.671 1559.82,805.171 1559.32,804.338L1558.99,803.838L1557.82,802.005L1556.82,800.171L1555.99,798.505L1555.15,796.671L1554.15,794.005C1553.82,793.171 1553.49,792.671 1552.99,791.838L1552.49,791.005L1552.15,790.338C1551.99,789.838 1551.32,789.505 1550.82,788.838L1550.49,788.338L1549.82,787.671C1549.32,787.171 1548.82,786.838 1547.99,786.505L1544.49,785.338L1542.65,784.838L1541.15,784.671L1539.32,784.505L1535.99,784.505C1535.15,784.505 1534.49,784.671 1533.65,785.005L1533.15,785.171L1531.82,785.005C1530.99,785.005 1530.15,785.005 1529.32,785.338L1528.82,785.505L1527.32,786.171L1526.49,786.338C1525.82,786.505 1525.15,786.838 1524.49,787.338L1522.99,788.338C1522.15,789.005 1521.82,789.338 1521.32,790.171L1520.82,790.838L1519.82,792.505L1518.82,794.505L1517.32,797.838L1516.82,798.838C1516.32,799.505 1515.99,800.505 1515.99,801.338L1515.99,801.838L1515.49,802.671C1514.99,803.171 1514.65,803.671 1514.32,804.338C1513.99,805.005 1513.99,805.671 1513.99,806.505L1513.99,807.005L1513.15,808.838L1512.32,810.005C1511.82,810.838 1511.49,811.171 1511.15,812.005L1510.99,812.838L1510.65,813.505C1510.49,814.005 1510.32,814.338 1510.15,815.338L1509.99,816.505L1509.49,817.171C1509.15,817.838 1508.99,818.338 1508.65,819.171L1508.32,819.838L1507.49,821.838L1506.82,823.671L1505.82,827.005L1505.15,828.005C1504.65,828.838 1504.49,829.505 1504.32,830.338L1504.32,831.171L1503.49,832.671L1502.99,833.838C1502.65,834.671 1502.32,835.505 1502.32,836.338L1502.49,836.838L1501.82,837.505C1501.32,838.171 1500.99,838.838 1500.82,839.671L1500.82,840.005L1500.15,841.171C1499.65,841.838 1499.49,842.671 1499.49,843.505L1499.49,844.005L1498.82,846.171L1497.82,847.505L1497.15,848.505C1496.82,849.171 1496.49,849.838 1496.15,850.671L1495.99,851.505L1495.49,852.505C1495.32,853.171 1495.15,853.838 1495.15,854.671L1495.15,855.338L1494.49,856.171C1493.99,856.838 1493.65,857.338 1493.49,858.171L1493.32,859.005L1492.99,860.005C1492.82,860.505 1492.65,861.005 1492.49,862.005L1492.49,862.505L1491.65,863.505C1491.15,864.171 1490.82,864.838 1490.49,865.671L1490.15,866.338L1489.82,867.171C1489.65,867.671 1489.65,868.171 1489.49,869.171L1489.32,870.005L1487.65,873.505L1487.15,874.671C1486.82,875.505 1486.65,876.338 1486.65,877.171L1486.65,877.505L1486.15,879.838L1485.82,880.671C1485.65,881.338 1485.82,882.171 1486.32,883.005L1486.99,884.338C1487.15,885.005 1487.49,885.171 1487.82,885.505C1488.32,885.838 1488.99,886.171 1489.82,886.505L1491.15,886.838L1492.15,887.171C1492.82,887.505 1493.65,887.505 1494.49,887.505L1494.65,887.505L1496.99,887.671L1500.99,887.838L1503.32,887.505L1504.99,887.338L1507.82,887.005L1508.82,887.171C1509.49,887.171 1510.15,886.838 1510.99,886.338L1511.15,886.338L1512.49,886.005C1513.49,885.671 1513.82,885.505 1514.15,885.338C1514.49,885.171 1515.15,884.838 1515.65,884.005L1515.82,883.671L1517.32,881.838L1518.32,880.171L1519.49,878.171L1521.49,874.338L1522.32,873.171L1523.82,873.005C1524.65,873.005 1525.49,872.838 1526.32,872.671L1526.49,872.505L1533.32,872.171L1534.82,872.171L1536.32,872.338C1537.15,872.338 1537.82,872.171 1538.65,872.005L1539.65,871.838L1541.15,872.005ZM1538.49,828.671L1540.32,832.171L1540.49,833.005C1540.65,833.505 1540.65,834.338 1541.15,835.005L1541.82,836.005L1542.49,838.005L1543.49,839.838L1543.82,841.505L1543.65,842.671C1543.65,843.505 1543.82,844.005 1544.15,845.005L1544.49,845.838L1543.82,847.838L1541.99,850.338L1539.65,851.005L1537.82,851.838L1534.32,851.838L1533.15,851.505C1532.32,851.171 1531.65,851.171 1530.82,851.005L1530.32,850.838L1528.65,847.338L1528.49,845.171L1528.99,844.338C1529.32,843.838 1529.65,843.171 1529.65,842.338L1529.82,841.505L1529.82,839.838L1530.65,838.005L1531.65,836.338L1532.82,834.338L1533.82,832.838L1535.82,828.838L1538.49,828.671Z" style="fill:rgb(255,246,59);fill-rule:nonzero;"/>
                </g>
            </g>
        </g>
    </g>
</svg>
