<svg viewBox="0 0 1600 861" xmlns="http://www.w3.org/2000/svg">
  <path
    d="M780.54 9.9c43.51-2.95 87.73 4.48 127.75 21.88 55.67 23.98 102.82 67 131.9 120.17 29.1 52.56 39.82 114.83 30.64 174.15-8.58 57.11-36 111.11-76.8 151.94-39.08 39.48-90.41 66.66-145.09 76.54-45.51 8.34-93.12 5.04-137-9.67-58.36-19.41-109.58-59.21-143.05-110.78-20.69-31.69-34.71-67.72-40.8-105.08-7.64-46.43-3.28-94.82 12.9-139.02 20.47-56.58 60.25-105.83 111.05-138.02 38.42-24.5 83.04-39.1 128.5-42.11M680.02 54.11c-55.77 28.87-100.31 78.7-122.51 137.47-17.04 44.46-21.29 93.66-12.46 140.43 6.37 33.92 19.64 66.53 38.78 95.25 20.5 30.85 47.73 57.17 79.19 76.7 29.12 18.12 61.9 30.34 95.79 35.65 37.21 5.85 75.71 3.62 111.92-6.8 31.68-9.05 61.58-24.27 87.56-44.53 41.98-32.56 73.53-78.34 88.81-129.24 17.45-57.37 14.18-120.79-9.34-175.98-23.49-55.95-67.49-102.95-121.85-129.94-18.63-7.26-40.32-7.45-58.46 1.39-16.5 7.83-29.54 21.44-39.53 36.49-7.68 11.68-14.57 23.92-20.3 36.68-2.94 6.73-5.85 13.86-5.29 21.37.44 9.09 5.96 17.16 12.86 22.74 11.46 9.24 25.69 14.25 39.88 17.52 7.6 1.53 15.44 3.16 23.21 2.07-7.57-14.21-4.59-32.93 7.07-44.04 9.26-9.62 22.45-14.8 35.65-15.59 20.74-1.38 41.54 5.71 58.03 18.14 14.32 10.82 25.62 25.27 33.97 41.07 5.66 10.81 10.4 22.18 13.22 34.09 9.86 39.75 4.64 83.44-16.09 118.96-13.13 22.71-31.82 42.01-53.69 56.44-5.26 3.22-10.22 7.69-16.46 8.72-4.52-.43-4.82-6.11-3.14-9.32 4.81-9.66 10.91-19.67 10-30.91-.3-8.01-5.14-15.24-11.84-19.43-4.57 34.79-23.02 67.24-49.87 89.68-24.43 21.24-55.21 34.75-87.22 39.15-26.1 3.67-52.71 1.05-78.28-4.84-7.35-1.8-14.84-3.77-21.31-7.83-1.23-.88-2.89-1.99-2.71-3.71.23-2.07 2.57-2.61 4.28-2.6 14.81-.31 30.22-1.18 43.75-7.78 6.91-3.41 12.95-9.14 15.33-16.61 3.11-9.81 1.39-20.99-4.43-29.47-9.1-13.41-22.81-22.63-33.17-34.93-8.97-10.36-16.61-22.46-19.18-36.1-2.06-10.42 0-21.1 2.89-31.15-26.52 4.23-54.14-4.74-74.67-21.64-12.67-10.3-22.9-23.58-29.77-38.37-4.74-9.8-8.8-19.98-11.4-30.55-1.04-5.37-2.28-11.05-.74-16.43.81-3.23 5.17-4.68 7.65-2.34 2.61 2.62 3.38 6.44 5.24 9.56 4.12 7.69 9.82 15.68 18.65 18.15 5.6 1.75 11.4-.52 16.12-3.5 10.5-6.55 19.14-15.55 27.79-24.28 5.77-6.03 12.27-11.48 19.79-15.18 8.36-4.14 18.13-5.72 27.28-3.57 7.35 1.69 13.77 6.56 17.86 12.85 4.27 6.63 4.85 15.11 2.76 22.59 18.6-17.52 29.99-40.79 42.01-62.94 6.28-12.41 13.4-24.36 20.86-36.09 10.22-15.97 20.44-32 32.21-46.89 9.68-12.05 19.32-24.22 30.34-35.09-56.34-10.92-116.2-2.07-167.04 24.51m216.41 98.39c-5.55 2.75-10.74 7.09-12.93 13.04-2.52 6.84-1.2 14.97 3.68 20.45 7.33 8.48 17.32 13.94 26.27 20.47 17.77 12.49 36.16 26.07 46.18 45.92 10.96 22.21 17.95 46.72 17.96 71.6.04 1.49-.18 4.13-2.28 3.77-1.24-.55-1.47-1.99-1.71-3.16-1.65-10.46-4.2-20.78-7.5-30.84-8.46-26.04-23.71-50.35-45.67-67.04-14.36-11.09-32.09-18.75-50.46-18.48-9.59 0-19.13 4.02-25.53 11.2-6.3 6.41-9.48 15.32-9.64 24.23 11.43-4.35 24.16-6.15 36.09-2.68 15.48 4.06 27.74 15.64 36.45 28.66 12.99 18.95 18.43 42.23 18.32 65 8.04 4 15.8 9.68 19.79 17.97 3.92 7.85 3.51 17.04 1.58 25.38-.79 2.31 2.13 3.72 4.05 3.14 4.35-.95 7.66-4.19 10.99-6.95 17.32-14.83 29.09-35.18 36.44-56.57 10.72-30.42 11.34-64.43 1.16-95.08-6.49-18.96-16.56-37.1-31.45-50.75-12.35-11.44-27.79-20.12-44.69-22.14-9.05-.93-18.68-1.13-27.1 2.86m-121.1.08c-1.08 13.65 2.4 27.21 7.22 39.87 6.79 17.32 16.45 33.44 27.8 48.14 3.56 4.41 7.04 9 11.59 12.46-1.77-7.07-2.65-14.59-.8-21.73 2.8-10.74 9.79-20.73 19.94-25.65-15.76-2.7-31.81-7.23-44.6-17.23-11.36-8.67-18.59-21.92-21.15-35.86m-42.98 70.06c5.96 1.28 12.08 3.11 16.75 7.23 6.65 5.63 9.04 15.14 7.5 23.51 4.62-.19 9.31-.13 13.83 1.01 8.7 1.76 16.43 7.5 25.5 7.48 2.81-.1 2.32-3.43 1.39-5.19-3.9-8.55-10.34-15.57-15.8-23.12-9.47-13.58-16.1-29-20.45-44.94-7.15 13.13-16.99 24.76-28.72 34.02m-53.25-30.45c-13.14 4.68-22.19 15.77-32.62 24.41-7.91 6.72-16.74 13.43-27.45 14.42-5.47 1.15-10.72-1.37-16.14-1.53-2.51.99-4.13 3.86-2.93 6.45 2.29 6.54 6.6 12.1 10.21 17.94 10 15.53 25.51 27.42 43.12 32.97 15.47 4.76 32.32 5.51 48.05 1.57 7.52-15.32 21.79-26.83 37.87-32.22.95-6.71-1.55-15.27-8.67-17.51-7.78-1.96-15.45 1.53-22.57 4.28-15.06 5.7-30.52 12.09-46.93 11.54-4.9-.29-10.06.07-14.69-1.83-1.46-.49-2.55-2.87-.35-3.28 3.67.02 7.33.5 11 .66 16.66 1.12 33.94-5.17 45.27-17.58 8.24-9.15 9.74-24.64 1.57-34.28-5.91-6.99-16.28-9.28-24.74-6.01m167.41 63.64c-7.48 1.49-13.84 7.64-15.15 15.22-1.6 6.45.97 12.82 2.76 18.93 5.34 17.25 13.75 33.84 15.07 52.1 1.6 19.62-3.8 39.16-12.41 56.65-6.54 13.42-14.9 26.01-25.07 36.96-1.55 1.28-3.64 3.95-5.79 2.37-1.2-1.76.43-3.39 1.44-4.7 18.08-20.23 27.69-47.4 27.99-74.4.15-18.74-4.6-37.72-14.77-53.56-8.76-14-21.43-25.99-36.92-32.13-13.72-5.34-29.64-5.8-43.25.14-14.35 6.2-25.62 18.83-30.55 33.61-3.69 11.31-3.28 23.89 1.28 34.89 6.03 15.03 17.47 26.95 29.17 37.76 9.63 9.74 20.59 20.06 22.72 34.3 2.48 11.92-1.97 23.88-8.24 33.87-1.92 3.49-4.88 6.41-6.21 10.21-.51 4.01 4.61 4.76 7.56 5.29 17.71 1.77 35.64-.86 52.68-5.77 19.3-5.61 37.76-14.5 53.64-26.9 24.31-18.41 40.53-46.65 45.48-76.63 2.96-18.31 2.89-37.61-3.71-55.15-5.35-14.18-14.02-27.64-26.72-36.25-8.95-6.13-20.27-9.08-31-6.81ZM1041.14 711.05c2.05-.74 4.12-1.45 6.21-2.1 16.4 42.55 32.78 85.11 49.18 127.67 1.61 3.89 3.47 8.4 7.66 10.11 3.35 1.01 6.88 1.19 10.33 1.82-.03 1.55-.04 3.11-.04 4.68h-53.01c-.02-1.57-.03-3.13-.03-4.68 4.9-1.21 10.23-1.15 14.81-3.42 2.28-1.3 1.11-4.1.44-5.97-5.13-13.79-10.18-27.6-15.36-41.36-15.22-2.81-30.91-2.77-46.13.04-4.37 12.06-8.9 24.07-13.16 36.17-.92 3.21-2.47 6.54-1.7 9.94.53 1.57 2.1 2.51 3.72 2.67 4.65.73 9.33 1.2 13.99 1.94 0 1.54-.01 3.08.02 4.64-15.06.04-30.12.03-45.17.01.21-1.52-.44-3.4.4-4.68 4.68-1.03 10.59-1.14 13.22-5.94 4.11-7.29 6.68-15.33 10.04-22.97 14.86-36.19 29.74-72.37 44.58-108.57m-2.82 26.91c-6.74 17.23-13.45 34.47-20.29 51.65 13.35-.72 26.75-1.78 40.07-.01-6.71-17.16-13.04-34.48-19.78-51.64ZM897.99 711.97c1.83-.63 3.66-1.27 5.5-1.9 1.47 26.98 3.11 53.95 4.37 80.94.95 16.06 1.34 32.2 3.59 48.15.34 2.31.88 5.03 3.26 6.11 3.82 1.97 8.24 2.16 12.37 3.18-.06 1.57-.13 3.13-.16 4.73-18.2-.05-36.4-.01-54.6-.03-.04-1.58-.05-3.13-.06-4.69 4.76-1.05 9.87-.89 14.38-2.9 3.82-1.97 3.91-6.82 4.02-10.57.03-28.37-2.95-56.64-3.61-84.99-15.41 32.57-32.61 64.28-48.39 96.67-.65 3.92-4.41 5.14-7.63 6.41-10.19-20.39-20.8-40.57-31.29-60.81-7.09-14.07-14.99-27.75-21.37-42.16-1.45 24.96-2.34 49.95-3.66 74.93-.15 5.34-.6 10.78.46 16.08.47 2.61 2.64 4.66 5.21 5.25 4.2.98 8.53 1.31 12.79 2.09-.02 1.55-.03 3.12-.02 4.69-14.77.01-29.53.01-44.3 0-.02-1.56-.03-3.11-.03-4.65 3.59-.98 7.37-1.44 10.78-3.02 2.28-.95 2.54-3.66 3.09-5.74 1.7-9.14 2.27-18.45 2.95-27.7 2.24-33.34 4.25-66.69 6.01-100.06 1.9-.64 3.8-1.29 5.72-1.92 20.93 38.18 41.06 76.8 61.77 115.11 10.93-19 20.88-38.54 31.13-57.91 9.4-18.34 19.19-36.51 27.72-55.29ZM3.65 711.93c39.7.09 79.4-.19 119.1.14 2 11.19 2.73 22.6 1.84 33.95-1.69 0-3.39.01-5.09.03-1.55-6.95-2.15-14.38-5.81-20.63-3.47-5.69-10.74-6.63-16.78-7.09-8-.29-16.02-.71-24.02-.21.06 29.95.01 59.9.02 89.85.03 9.99-.15 20 .46 29.98.24 3.38 1.1 7.75 4.88 8.83 4.69 1.26 9.63 1.05 14.42 1.68-.02 1.55-.03 3.1-.03 4.67-19.74.03-39.49.07-59.23-.02 0-1.57-.01-3.11-.01-4.65 4.58-.51 9.23-.53 13.75-1.46 2.16-.44 4.08-1.95 4.71-4.11 1.37-4.51 1.22-9.29 1.35-13.95.11-36.92-.11-73.85.11-110.77-6.74-.64-13.52-.09-20.28 0-6.99.36-15.62.47-20.13 6.79-3.94 6.24-4.55 13.85-6.04 20.92-1.71.08-3.43.16-5.14.25-.92-11.43-.15-22.94 1.92-34.2ZM173.32 716.6c.43-1.49-1.1-5.06 1.51-4.73 30.23.05 60.48-.12 90.71.08 1.96 10.29 2.78 20.79 1.89 31.25-1.72.26-3.44.53-5.15.82-1.5-6.34-2.17-13.1-5.58-18.77-2.68-4.44-8.07-5.99-12.9-6.61-11.46-1.27-23-.64-34.5-.78-.03 19.63.02 39.26-.03 58.89 9.8-.04 19.61.15 29.4-.15 3.55-.29 7.98-.51 9.99-3.95 1.85-3.74 1.77-8.06 2.5-12.09 1.87-.01 3.75 0 5.63 0-.08 12.77-.03 25.54-.03 38.31-1.87-.02-3.74-.03-5.61-.02-.88-4.29-.47-9.18-3.1-12.9-2.74-3.06-7.28-2.9-11.03-3.2-9.25-.17-18.51-.08-27.76-.07.06 20.53.04 41.07.01 61.6 15.87 3.08 33.15 4.96 48.44-1.44 10.26-4.49 13.12-16.26 15.28-26.16 1.8.29 3.59.58 5.39.88-.55 12.14-3.38 24.02-7.14 35.54-32.61-.01-65.23.01-97.84-.02-.03-1.56-.05-3.09-.08-4.63 3.91-.46 7.91-.41 11.73-1.41 2.34-.61 3.36-3.04 3.7-5.2.9-5.56.64-11.22.73-16.83-.03-31.01.1-62.03-.07-93.05-.33-4.32.31-9.32-2.53-12.93-3.99-2.53-9.08-1.67-13.56-2.43ZM336.21 711.87c17.3-.01 34.6-.01 51.9 0 0 1.57 0 3.14.01 4.73-4.02.52-8.18.33-12.07 1.55-3.42 1.44-3.47 5.74-3.77 8.89-.61 16.24-.27 32.49-.36 48.73 25.41.09 50.81.04 76.21.03-.17-16.3.38-32.62-.38-48.91-.26-3.1-.41-7.33-3.81-8.66-3.85-1.21-7.96-1.01-11.92-1.56.05-1.58.09-3.17.14-4.73 17.24.31 34.49-.01 51.74.13.01 1.53.03 3.07.06 4.61-3.95.56-8.05.34-11.88 1.54-3.73 1.55-3.57 6.34-3.86 9.73-.64 21-.16 42.02-.31 63.03.14 16.04-.36 32.09.42 48.12.28 2.86.56 6.72 3.69 7.94 3.86 1.14 7.97 1 11.95 1.52-.03 1.54-.05 3.09-.07 4.66-17.27 0-34.54.01-51.82-.01-.01-1.58-.02-3.13-.02-4.68 3.94-.45 8-.36 11.84-1.48 2.5-.82 3.3-3.62 3.59-5.95.48-4.35.56-8.74.63-13.1.01-15.41.01-30.81.01-46.21-25.4-.01-50.8-.02-76.2 0 .01 14.74-.05 29.47.02 44.21.26 5.3-.08 10.66.76 15.94.29 2.29 1.53 4.8 4.01 5.32 3.7.83 7.53.9 11.3 1.21.05 1.57.08 3.14.14 4.74-17.33.02-34.66.02-51.98 0-.02-1.6-.02-3.18-.03-4.76 4.33-.72 9.15-.01 13.13-2.15 3.26-3.11 2.46-8.21 2.91-12.3.14-34.31.14-68.63-.01-102.95-.45-4.1.34-9.17-2.9-12.29-3.99-2.13-8.79-1.46-13.14-2.16.02-1.58.04-3.16.07-4.73ZM544.4 711.86c17.31-.01 34.61-.01 51.92 0 0 1.56.01 3.13.02 4.71-3.82.43-7.72.42-11.46 1.35-2.33.55-3.52 2.89-3.83 5.08-.88 5.29-.66 10.68-.74 16.02.04 22.01-.13 44.03.08 66.04.46 11.33 1.41 23.63 8.55 32.97 6.12 7.96 16.51 10.77 26.12 11.16 15.72 1.08 31.83-5.2 42.32-17.02-.14-33.72.1-67.45-.12-101.17-.35-3.99.19-8.61-2.45-11.93-3.92-2.71-9.13-1.73-13.61-2.52.01-1.58.02-3.15.05-4.71 17.31-.01 34.62-.01 51.93 0 0 1.56 0 3.14.02 4.72-3.73.39-7.52.43-11.19 1.26-2.1.37-3.52 2.25-3.93 4.25-1.02 4.56-.81 9.28-.91 13.93-.05 39.02 0 78.04-.03 117.06-2.19.7-4.39 1.35-6.63 1.86-3.95-4.3-7.01-9.9-12.53-12.37-5.69 2.29-11 5.42-16.76 7.54-16.05 6.25-33.93 7.99-50.8 4.43-8.63-1.89-17.09-6.33-22.07-13.84-6.42-9.58-7.43-21.53-7.76-32.74-.17-23-.01-45.99-.08-68.98-.09-5.26.12-10.56-.73-15.76-.35-2.19-1.39-4.65-3.75-5.23-3.8-1.01-7.79-.96-11.68-1.4.02-1.58.03-3.15.05-4.71ZM1163.55 711.91c15.47-.04 30.94-.01 46.42-.02 11.23.02 22.68-.32 33.61 2.68 7.52 2.02 14.81 6.06 19.25 12.64 7.48 11.75 7.44 28.29-1.03 39.55-5.84 7.99-14.27 13.63-23.07 17.93 9.73 17.33 17.89 35.67 29.99 51.56 2.62 3.34 5.32 6.71 8.74 9.3 3.37 2.45 7.72 2.63 11.74 2.89-.02 1.55-.03 3.1-.02 4.67-8.35-.35-16.95 1.01-25.09-1.36-9.32-2.92-16.29-10.56-21.01-18.82-5.98-11.01-11.27-22.42-18.05-32.98-2.05-3.08-4.28-6.63-8.12-7.57-5.72-1.5-11.7-.74-17.53-.91.14 15.19-.21 30.38.23 45.57.38 3.33.03 7.98 3.56 9.75 3.86 1.3 8.05 1.06 12.06 1.59-.02 1.57-.03 3.14-.02 4.72-17.23 0-34.45.02-51.68-.01-.03-1.56-.05-3.1-.05-4.63 4.28-.64 8.93-.12 12.94-1.99 3.36-2.69 2.68-7.65 3.09-11.48.29-28.98.05-57.97.13-86.95-.1-7.66.23-15.35-.47-23-.29-2.72-.99-6.26-4.08-7.04-3.78-.99-7.74-.94-11.59-1.39.01-1.57.02-3.15.05-4.7m35.92 8.91c-.14 21.57.02 43.15-.08 64.73 8.22-.15 16.67.79 24.65-1.73 7.43-2.11 14.11-7.12 17.72-14.01 4.32-8.19 4.77-17.93 3.22-26.91-1.4-7.98-6.13-15.5-13.36-19.38-9.79-5.42-21.53-4.99-32.15-2.7ZM1337.32 711.9c16.55-.02 33.11-.01 49.67-.01 17.72.08 36.01-1.1 52.99 5.04 15.23 5.07 28.63 16.25 34.92 31.2 7.13 16.8 7.04 36.03 2.58 53.52-4.08 15.58-14.24 29.44-28.01 37.84-15.92 9.91-34.98 13.38-53.49 13.67-19.59.02-39.18.01-58.76 0-.04-1.58-.05-3.13-.06-4.69 4.38-.69 9.17-.06 13.23-2.11 3.13-2.79 2.52-7.57 2.92-11.37.27-29.32.05-58.65.12-87.97-.1-7.36.23-14.75-.48-22.08-.3-2.69-1.01-6.19-4.07-6.95-3.8-.99-7.77-.92-11.63-1.38.01-1.58.03-3.15.07-4.71m35.88 9.37c.08 40.61.02 81.22.03 121.83 10.8 2.05 21.83 3.83 32.85 2.59 15.57-1.11 31.53-7.73 40.7-20.85 10.93-15.55 12.44-35.64 10.66-54.02-1.56-16.57-9.04-33.66-23.77-42.51-18.03-10.97-40.34-10.46-60.47-7.04ZM1545.35 711.88c17.3-.03 34.6-.01 51.9-.01-.01 1.57-.01 3.15.02 4.74-4.56.84-10-.32-13.78 2.78-2.75 4.29-1.89 9.78-2.23 14.64-.02 33.58-.15 67.15.07 100.72.38 3.92-.3 8.86 3 11.7 4 1.86 8.63 1.38 12.95 1.99-.03 1.56-.04 3.13-.03 4.71-17.3.01-34.6.01-51.9 0-.05-1.58-.05-3.14-.05-4.7 4.48-.77 9.59.11 13.58-2.45 2.66-3.36 2.14-8.02 2.47-12.05.2-28.97.03-57.95.09-86.92-.1-7.36.22-14.75-.48-22.08-.31-2.67-.99-6.1-3.97-6.94-3.82-1-7.81-.96-11.69-1.41 0-1.58.01-3.16.05-4.72Z" />
</svg>